<svg xmlns="http://www.w3.org/2000/svg" viewBox="0 0 638.25 572.05"><defs><style>.cls-1{fill:#308edc;}.cls-2{fill:#f3aca1;}.cls-3{fill:#afdbf6;}.cls-4{fill:#f3ada2;}.cls-5{fill:#bd7792;}.cls-6{fill:#219fa9;}.cls-7{fill:#5b2448;}.cls-8{fill:#1a9ca5;}.cls-9{fill:#1a9da6;}.cls-10{fill:#29aebb;}.cls-11{fill:#2b7498;}.cls-12{fill:#80bff2;}.cls-13{fill:#5c2549;}.cls-14{fill:#fcfbfb;}.cls-15{fill:#964489;}.cls-16{fill:#c1f3fd;}.cls-17{fill:#f6bbb2;}.cls-18{fill:#b9e9fb;}.cls-19{fill:#7e356e;}.cls-20{fill:#f6b7ad;}.cls-21{fill:#b9e8fc;}.cls-22{fill:#fcbaad;}.cls-23{fill:#f5bfb6;}.cls-24{fill:#fcc1b6;}.cls-25{fill:#f6c1b8;}.cls-26{fill:#2ba6bc;}.cls-27{fill:#c5f8fd;}.cls-28{fill:#b9effb;}.cls-29{fill:#c2f4fd;}.cls-30{fill:#bff1fe;}.cls-31{fill:#5e274a;}.cls-32{fill:#348fda;}.cls-33{fill:#addef9;}.cls-34{fill:#acddfa;}.cls-35{fill:#ba6c92;}.cls-36{fill:#b8618c;}.cls-37{fill:#b9628c;}.cls-38{fill:#c06c8f;}.cls-39{fill:#c26e8f;}.cls-40{fill:#c07394;}.cls-41{fill:#b65f8b;}.cls-42{fill:#b8e7fa;}.cls-43{fill:#f2f7fc;}.cls-44{fill:#b7608c;}.cls-45{fill:#7fbff1;}.cls-46{fill:#86c3f2;}.cls-47{fill:#81c0f2;}.cls-48{fill:#7ebef1;}.cls-49{fill:#7dbdf1;}.cls-50{fill:#82c0f2;}.cls-51{fill:#89c4f2;}.cls-52{fill:#7ebef2;}.cls-53{fill:#fdce2d;}.cls-54{fill:#9b3b81;}.cls-55{fill:#9b4185;}.cls-56{fill:#0f9bb3;}.cls-57{fill:#9ac4e1;}.cls-58{fill:#2d94a0;}.cls-59{fill:#119fa9;}.cls-60{fill:#b3e4fc;}.cls-61{fill:#80bff3;}.cls-62{fill:#c16b8f;}.cls-63{fill:#1e9fa9;}.cls-64{fill:#0c9eaa;}.cls-65{fill:#29a0a9;}.cls-66{fill:#649ea5;}.cls-67{fill:#f84f46;}.cls-68{fill:#fdfdfd;}.cls-69{fill:#f5fafd;}.cls-70{fill:#fdfbfb;}.cls-71{fill:#1c9da6;}.cls-72{fill:#8dc6f2;}.cls-73{fill:#31a6b2;}.cls-74{fill:#219faa;}.cls-75{fill:#fd4439;}.cls-76{fill:#a8e8fe;}.cls-77{fill:#fc453a;}.cls-78{fill:#eb8e91;}.cls-79{fill:#f7b1a5;}.cls-80{fill:#4d1840;}.cls-81{fill:#632c4d;}.cls-82{fill:#9e606f;}.cls-83{fill:#501a41;}.cls-84{fill:#531d43;}.cls-85{fill:#b25a8a;}.cls-86{fill:#be688e;}.cls-87{fill:#febaab;}.cls-88{fill:#ca7892;}.cls-89{fill:#b2727b;}.cls-90{fill:#d1ddea;}.cls-91{fill:#bb658d;}.cls-92{fill:#be698e;}.cls-93{fill:#be6b8f;}.cls-94{fill:#c26f8f;}.cls-95{fill:#b55e8b;}.cls-96{fill:#77a4a6;}.cls-97{fill:#fccc24;}.cls-98{fill:#d2d59d;}.cls-99{fill:#a9dcfe;}.cls-100{fill:#b6e1fb;}.cls-101{fill:#7ebff6;}.cls-102{fill:#a7d8f1;}.cls-103{fill:#83c1f2;}.cls-104{fill:#a0d4f1;}.cls-105{fill:#b9e6fd;}.cls-106{fill:#7fbef1;}.cls-107{fill:#209fa9;}.cls-108{fill:#ebeef1;}.cls-109{fill:#fae5e4;}.cls-110{fill:#bce1fd;}.cls-111{fill:#a9dffc;}.cls-112{fill:#f84e45;}.cls-113{fill:#fba9a5;}.cls-114{fill:#bee1fd;}.cls-115{fill:#30a6b1;}.cls-116{fill:#bce0fc;}.cls-117{fill:#f84137;}.cls-118{fill:#dff1f2;}.cls-119{fill:#b2ddf6;}</style></defs><g id="Camada_2" data-name="Camada 2"><g id="Camada_1-2" data-name="Camada 1"><path class="cls-1" d="M95.07,102.63C107.92,78.24,121,53.88,136.59,31.21c14.13-20.52,35-31,60.25-31.08Q319-.09,441.13.16c28.12.07,50.32,12.85,64.34,36.7q62.06,105.51,122.41,212c14,24.52,13.78,50.25-.26,74.82q-60,105.12-121,209.73c-14.9,25.51-37.82,38.62-67.79,38.61Q318.9,572,199,572c-29.54,0-52.34-12.81-67.11-38.07Q70.71,429.42,10.67,324.26c-14.34-25.1-14.12-51.05,0-76.42C19.1,232.73,28.12,218,36.86,203c4.58.79,4.59,4.85,5.11,8,1.78,10.53,4.71,20.85,5.93,31.48a25.7,25.7,0,0,0,1.13,7,44.05,44.05,0,0,1,.78,8.42c-.38,7.54,2,14.7,3.18,22a19.67,19.67,0,0,1,.25,2.77c4.93,37.15,9.38,74.44,23.69,109.53,6.45,15.82,15.48,29.63,32.44,36.17,7.66,8.31,6.95,19.67,10.52,29.47,1.78,4.91,3,10.11,4.33,15.2,1.61,4.15,5.86,2.9,8.83,4.29,39.13.39,78.25.68,117.33-.18,4.92-2.12,4.39-6.05,3.47-10.22-.72-3.32-2-6.95,2.53-8.82,12.3.65,24.16,4.16,36.36,5.4,7,1.2,14,2.43,21,3.43,4.72.17,9.19,2.09,14,2a32.65,32.65,0,0,1,5.66.68c7,1.15,14,1.85,21.06,2.68a62.78,62.78,0,0,1,8.66.79c11.49,2.15,23.13,2.34,34.76,2.77,12.47.09,24.93,0,37.38,0,17.85-1,35.89-1.94,50.72-13.53,19.67-15.38,28.14-36.62,29.95-61,.09-6.72,0-13.44,0-20.16-1.8-27.24-10.4-52.8-19.78-78.11a283.12,283.12,0,0,0-31.31-61.73C452,222.57,435.91,207,417.54,193.48a102.75,102.75,0,0,0-47.37-19.62,42.83,42.83,0,0,0-7.68.08c-2.54.44-5,1.29-7.63,1.2a12.94,12.94,0,0,1-3.8-.64,29.48,29.48,0,0,1-6.71-3.59c-2-1.66-2.85-4.13-4.27-6.21a180.35,180.35,0,0,1-18.26-36c-2.2-6-1.7-9.68,5.46-11.67,7.84-2.19,14.23-7,17.31-15a25.5,25.5,0,0,0,.2-8.13c-.9-3.55-4.33-4.92-6.42-7.44-2.91-4.13-8.4-.62-11.6-3.9-2.87-9-.38-17.43,2.91-25.64,3.05-7.59,3.94-14.68-1.95-21.36s-13-7.49-20.86-5.25c-3.85,1.1-6.56.2-9.45-2.57-10.5-10.07-17.3-10-27.76-.07-1.53,1.59-2.94,3.36-5.28,3.82-7-.52-13.91-1.31-19.46,4.83-6.76,7.49-6.49,17.44,1.36,23.78,3.28,2.65,6.77,4.86,5.17,9.91-1.32,1.2-1.24,2.53-.35,4,1.07,16.92-7.63,30.82-14,45.42a33.21,33.21,0,0,0,0,10.1c5,9.64,14.43,10.28,23.59,11.4,4.8.14,9.59-.22,14.38.28a7.6,7.6,0,0,1,4.06,1.94c2.55,4.19,1.78,8.82,1.81,13.34a45.91,45.91,0,0,1-1.64,11.24,37.4,37.4,0,0,1-2.62,11.66,11.42,11.42,0,0,1-2.11,3.16,12.67,12.67,0,0,1-3.95,2.68,14,14,0,0,0-5.52,3.77,5,5,0,0,1-3.4,1c-18.35-1.69-32.08,7.67-44.83,19-24.37,21.62-41.53,48.5-56.07,77.29-1.77,3.49-2.45,8.1-7.34,9.2-6.16-4.51-8.49-11.46-11.14-18.09a107.59,107.59,0,0,0-9.67-19.35,9,9,0,0,1-1.32-2.18C128,242.63,120.87,231.08,116,218.6,108.65,199,99.72,179.92,96.26,159c-.6-6.18,1.3-12.63-2.07-18.5-1.42-5.38,1.89-9.28,4.29-13.43a44.38,44.38,0,0,0,4.46-9.23,24.61,24.61,0,0,0,.11-8.3C101.91,105.5,97.27,105.46,95.07,102.63Z"/><path class="cls-2" d="M98,159c4.49,21,13.43,40.44,20.35,60.59.83,5.72-3.35,8.48-7,11.17-11.58,8.41-24.4,13.86-38.79,15.17a35.84,35.84,0,0,0-7.78,1.22,20,20,0,0,1-8.5,0c-3.42-1.43-7.74-.34-10.49-3.67-3.1-13.44-4-27.37-8.91-40.42-1.72-7.24-3.17-14.55-5.27-21.67-1.18-4-1.61-7.74-.2-11.66,1-4.7,4.72-5.62,8.65-6.3a13.23,13.23,0,0,1,6.3,1.37c3.35,2.1,6.34,4.55,8.12,8.22.58,3.27,2.27,6.62-.59,9.68a12,12,0,0,1-2.4.85c-1,.36-1.74-1.12-2.69-.19.87.07,1.64.55,2.51.57a4.63,4.63,0,0,0,2.4-.79c3.53-1.35,0-6.55,4.09-7.58,5-.33,8.88-1.46,5.13-7.66-.46-.64-.86-1.3-1.27-2a32,32,0,0,0-9.39-9.85c-.66-.34-1.3-.72-2-1.09-1.59-.91-3.51-1.33-4.58-3-1.07-13,2.7-24.26,12.25-33.38,4.8.53,3.71,4.42,3.84,7.26.21,4.41-1.64,8.48-2.82,12.64-1,3.64-3.05,7.42,1.32,10.37.66.14.78,1.3,1.73.94a4.21,4.21,0,0,1-1.59-3c.12-2.72,1.85-4.52,3.55-6.34,1.94-1.62,3.69-3.72,6.69-2.81A9.68,9.68,0,0,1,73.52,142c1,6.89,6.41,12.29,6.46,19.48-.8,5.29-2.33,10.42-3.44,15.64-.35,3.25.43,6.64-.54,9.81,1-3,.24-6.36.59-9.51,1.08-5.23,2.57-10.37,3.45-15.64-.08-2.77.5-5.23,3-6.85a9.28,9.28,0,0,1,2.37-.72c6.31-.06,3.75-8.42,8.92-9.56C99.39,148.41,94.73,154.71,98,159Z"/><path class="cls-3" d="M93.59,145.16c-2.37,3.67,1,11.32-7.51,10.7-2.69-2.75-1.51-7.07-4-9.87-2.23-2.75-2.49-7.44-7.45-7.46-1.43-.19-2.8-.67-4.25-.79l-5.18,3.92c-3.35,1.3-7.79,7.61-8.78-1.92.58-7.06,6.7-13.7,1.6-21.18,1.58-6.11.46-12.87,5.14-18.24,3.42-3.93,7.28-6.43,11.62-2.73,6.14,5.23,13,5.64,20.34,5,4.16.39,8.3.83,10.06,5.57a21.47,21.47,0,0,0,.12,10.11c-1.08,8-9.09,12.6-10.15,20.62C96.22,141.4,95.57,143.44,93.59,145.16Z"/><path class="cls-4" d="M51.27,153.78l1.62.11c2.62,4.81,7.61,7.6,10.39,12.27l0-.07c4.29,8.39,3.92,9.21-4.33,9.67-2.33-.51-4.83-.65-6.3-3l-6.46-6.58c-2-.38-3.23-3.45-5.83-1.6-2.74,2.11-7,1.6-8.93,5.11,2.53-7,6.19-13.19,12.74-17.23C46.49,153,48.91,153.24,51.27,153.78Z"/><path class="cls-5" d="M51.27,153.78c-2.79,1.82-4.89-.18-7.14-1.3a11.45,11.45,0,0,1,1.59-.54C47.75,152,49.89,151.74,51.27,153.78Z"/><path class="cls-3" d="M518.06,402.33c-2.12,36.11-24.12,72.11-67,74.57-4.65.27-9.25,1.58-14,1.15a247.36,247.36,0,0,0-40.28,0c-11.25-.81-22.76,1-33.7-3.16-2.81-1.8-5.72-1.28-8.64-.36-7.15-.79-14.46-.53-21.32-3.26-1.17-.84-2.48-1.57-2.5-3.29,5.66-17.85,8.13-35.87,2.75-54.28-1.43-5-2.82-9.9-5.58-14.4-6-9.84-5.51-10.71,6.46-11.67,4.82-1,9.75-1.4,14.54-2.58a17.45,17.45,0,0,1,2.68-.55c6.89-.21,13.57-1.78,20.31-3a23.74,23.74,0,0,1,4.28-.7,39.36,39.36,0,0,1,7.44.17c8.53.77,17.07.16,25.59.36,2.32.05,4.66-.17,5.72.19a126.1,126.1,0,0,0-20.71-.06c-8,.64-11.95-2.84-15.56-9.61-12.85-24.12-21.66-49.72-29.45-75.76a18.1,18.1,0,0,1-.63-2.59c-1.31-5.68-3.29-11.17-4.63-16.83a184.92,184.92,0,0,0-3.82-20.5,26.56,26.56,0,0,1-.48-4.35c-2.75-21.8-4.17-43.56,1.76-65.13,1.57-5.64,3.2-11.24,9.75-13.21h3.41c2.76,1.5,5.16.29,7.54-1,2.68-.46,5.49.61,8.08-.74,23.65,2.55,42.55,14.22,60.47,29.24,13.81,11.57,26,24.32,36.06,38.94,21.67,31.59,35.19,66.91,45,103.75,3.17,11.85,6,23.75,6.43,36.09A84.55,84.55,0,0,0,518.06,402.33Z"/><path class="cls-6" d="M121.53,474.76c-3.31-15.19-6.71-30.37-12.34-44.92-2.6-2.7-3.07-6.28-3.93-9.67-7.27-28.47-14-57.09-21.57-85.48C82,328.42,82.07,323,89,319.9a12.28,12.28,0,0,1,5.84-.25c7.88,1.87,15.83,1.1,23.76.63a6.4,6.4,0,0,1,2.67.35c5.51,4.25,4.9,11.72,8.86,16.77a162.3,162.3,0,0,0,39,0c2.18-5.66-4-11.57.54-17.12,2.24-1.25,4.68-1.32,7.14-1.36q12.38,0,24.74,0a35,35,0,0,1,7.71.61,8.45,8.45,0,0,1,2.72,1.35,16.49,16.49,0,0,1,4.3,7.49c5.32,18.48,9.29,37.31,14.37,55.85.77,2.83.68,5.81-1.51,8.25a41.94,41.94,0,0,1-26.73-4.32c-.46-2.18,1.08-2.22,1.67-2.27-3.81,1.76-9.09.19-13.64,2.49-1.42,3.91,3.65,4.81,3.71,8-1,2.32-3.06,2.61-5.15,2.93-3.17.23-6.34.06-9.51.07-2.73,0-4.46,1-4.45,4-.25,1.52-1.51,2.5-2,3.87,0,4.26,3.83,5.31,6.36,7.37,2.81,2.3,6.54,3.62,7.84,7.49a3.76,3.76,0,0,1-1.81,3c-4.07,3.22-.56,5.09,1.51,6.62,5.58,4.13,11.23,8.22,17.78,10.82,2.66,1.05,5.62,1.7,7.07,4.61.91.58-1.62,1.6.18,1.93a26.19,26.19,0,0,0,8.33-.24c9.39,1.68,18.68,3.69,27.24,8.15,3.09,7.22,8.65,14.35.69,21.92a7.61,7.61,0,0,1-3.18-.29c-35.27-.49-70.53,0-105.78-.24C133.19,478.23,126.93,478.58,121.53,474.76Z"/><path class="cls-3" d="M350.76,293.07V295c3.86,20.14,11.59,39,19.69,57.66a156.81,156.81,0,0,0,9.16,18.86c4.62,7.67,4.33,7.84-4.09,11.58l-3.76.05c-7.05.7-14.21.71-20.92,3.47l-2,.07a141.58,141.58,0,0,0-14.65,1.69c-5.36-.53-10.24,2-15.44,2.45-9.6,2.2-19.56.89-29.16,3C272,395.68,256,391,241.24,381.44c-1.24-2.95,0-6.27-1.34-9.22a18,18,0,0,1-.29-6.58c.66-2.94,1.41-5.87,2.06-8.83a26.29,26.29,0,0,0,.94-6.36,25.6,25.6,0,0,1,1-8c7.84-21.5,14.15-43.53,23-64.68.9-2.15,1.29-4.52,2.66-6.48,8.22-13.46,15-27.68,22.28-41.65,11.18-15.37,21.64-31.26,32.68-46.74,5.46-6.74,11.07-13.36,18-18.75,2.42,1.13,1.39,4.89,4.29,5.65a9,9,0,0,1-1.42,7.51c-14.62,20.64-24.33,43.46-30.19,68a5.31,5.31,0,0,1-2.39,2.51c-17.59,6.39-21.41,21-22.32,37.33-1.26,16.19,1.44,31.49,9.72,45.67,4.13,7.09,3.66,8-4,9.76-2.75-.37-5.48-1.17-8.39-.74,2.45.49,4.9.42,7.29.85,5.75,0,11.8-3.14,17.07,1.66,1.87,0,3.69,1.67,5.73.13-2.07-1.7-4.47.07-6.52-.83-5.86-3.22-2.26-6.94-.25-10.13a119.4,119.4,0,0,0,16.43-43.65,21.43,21.43,0,0,1,.27-2.65c2.73-13.5,2.8-26.28-9.44-35.87a6.15,6.15,0,0,1-2-3.82c1.59-17.32,9.51-32.47,16.66-47.85.95-2,2.42-4.17,5.41-3.48,2.66,2.86.87,6.08.71,9.14-.83,16.5-2.55,33.05,3.07,49.14,0,1.21,0,2.42,0,3.63-.1,7.84,2.12,15.27,4,22.77C346.8,283.87,347.34,289,350.76,293.07Z"/><path class="cls-2" d="M342.2,164.17c-3.5,8-10.79,12.74-16.19,19.11-8.34,10.12-20,13.92-32.16,16.3-4.49.88-7.84,2.08-8.51,7.07a4.88,4.88,0,0,1-1.65,2.13c-4.79-1.1-3.5-5.9-5.38-8.78-3.08-6.18-8-12-3.56-19.59q1.11-6.28,2.23-12.56c3.12-3.25,1.88-8.19,4.52-11.63,3-5,9-7.52,11-13.33.34-1.3,1.51-2.9.55-3.85s-2.45.44-3.68,1c-3.62,1.85-7.17,3.94-11.51,3.16l-3.07-.36a49.1,49.1,0,0,0-15.54,0c-9.61-1.07-19.25-2.06-24.46-12.06a32.71,32.71,0,0,0,.08-12.08c3.18-10.84,11.69-19.47,12.76-31.22.44-4.89,1.47-9.73,2.24-14.59,1.38-2,4.06-2.09,5.66-3.77,1.43-3.74,2.47-8.12,8-6.92,4.54,1,10.19.47,10.68,7.57.38,5.4,8,5.82,8.39,11.38-2.07,5.25-7.1,2-10.41,3.67-2.2,1.07-2.13,2.57-.8,4.31a20.94,20.94,0,0,1,1.17,1.83c2.14,1.52,4.3.7,6.42.07.48-.55,1-1.1,1.38-1.69a16.28,16.28,0,0,1,1.25-1.82c1.28-1.49,2.64-3.16,4.65-3.26,3.09-.15-.08-1.18.33-1.64,0-3-1.69-6.24,1.15-8.88,2.94-.91,4.71.81,6.36,2.81,3.54,4.66,5.93,10,8.6,15.14,2.33,4.5,4.8,5.42,8.38,1.15a44.82,44.82,0,0,1,7.51-7.25c2.51-1.86,5-4.27,8.58-2.15,4.29.74,8.9-1.08,12.94,1.6,1.66,2.92,6.4,3.07,6.57,7.32a33.66,33.66,0,0,0,.06,10.12c-3.91,11.93-14,15.57-24.76,18.58C325.9,136.68,333.46,150.7,342.2,164.17Z"/><path class="cls-2" d="M241.29,379.62c14.88,8.16,30.52,13.37,47.78,12.25a16.33,16.33,0,0,1,3.87,2c4.13,4,6.31,9.08,7.84,14.41,4.33,15.18,4.66,30.46,0,45.61-1.42,4.65-3.27,9.45-8.18,11.91L255,459.58c-3.21,1.5-6,1-8.21-1.84l-28.3-7.62A5.85,5.85,0,0,1,212,448c-10.28-5-21-9.14-29.51-17.15-1.63-1.53-4.1-3.1-2.63-5.83.95-1.77,3.15-1,4.87-1.1,2.78.4,5.55.83,7.94,2.49,4.86,2.08,9.36,4.95,14.42,6.59,5.26,2,10.36,4.64,16.22,4.44,1.2-.05-.08-1.46.2-.32.1.4-.13.54-.68.49-5.21-.45-10-2.26-14.73-4.38-5.52-1.67-10.37-4.84-15.66-7-1.91-1.44-4.61-1.81-5.76-4.27-4.59-3.17-9.36-6.1-13.68-9.6-1.74-1.41-6-3.14-1.84-6.61.89-1.31,3.08.75,3.64-1.4-.8-2.25-5-3-3.28-6.15,1.24-2.25,4.11-1.29,6.28-1.28,3.4,0,6.81.31,10.21.49,2.1,1.17,4.34.6,6.48.54.34-.38,1.08,1.1,1.27-.27a5,5,0,0,1-2.08-2c-4.43-1.16-7.31-3.55-6.91-8.58,5.08-2.11,10.2-1.81,15.33-.19,9,2.53,18.2,3.65,27.44,4.7,5.61-2.69,2.66-7.75,3.27-11.82a5.55,5.55,0,0,1,1.08-2.07c2-1.05,3.81-.25,5.66.42A4.4,4.4,0,0,1,241.29,379.62Z"/><path class="cls-3" d="M89.71,321.23c-5.3,2.58-5.35,6.52-4,11.75,7.59,29.09,14.82,58.27,22.23,87.41.8,3.12,1.89,6.15,1.24,9.44C97,428.79,90.63,419.51,84.48,411,73.74,396,68.61,378.61,64.35,360.87a630.27,630.27,0,0,1-13.44-78.35c3.55-2.54,7.4-.61,11-.47,27.48,1,51.48-7.4,72-25.78,8.59,11.79,12,26.2,19.32,38.61,2.78,1.18,4.16,3.44,4.85,6.24a6.25,6.25,0,0,1-.71,4c-5.18,4.55-11.47,2.09-17.27,2.66-4.26.42-8.57-.49-12.8.33a10.6,10.6,0,0,0-1.55,1.73c-1.76,2.34-2.07,5.32-3.47,7.83a5,5,0,0,1-2.14,1.59c-9.31,1.92-18.69.52-28,.56A7.45,7.45,0,0,0,89.71,321.23Z"/><path class="cls-3" d="M156.53,300.12l-3.31-5.24c8.21-14.4,15.93-29.12,24.75-43.14,13.77-21.9,29.81-42,52.3-55.69,9.8-5.94,20.28-11.79,32.7-7.13-.6,6.65-5.87,10.43-9.39,15.29-3.94,3.11-7.74,6.33-9.24,11.42a29.09,29.09,0,0,1-5.28,7.8,27.68,27.68,0,0,0-5,7.9,18.66,18.66,0,0,1-1.26,2.11c-9.17,14.11-13.18,30.42-19.48,45.75a42.47,42.47,0,0,0-1.73,8.66,22,22,0,0,1-.53,2.54c-.94,7.35-4.72,14.13-4.36,21.74-.18,2.71-.07,5.51-2.35,7.55a3.15,3.15,0,0,1-2.55.15c-8.54-.82-17.23.68-25.7-1.59-4.45-.68-3.65-6.45-7.52-7.7-2.07-1.16-4.5-1.31-6.61-2.38C158.5,306.57,158.89,302.43,156.53,300.12Z"/><path class="cls-7" d="M287.35,74.59c.34,2.79,2,5.68-.56,8.28-2,1-3.45.21-4.54-1.54-2.46-5.44-14.2-4.13-10.46-14.77.48-1.38-7.05-2.45-10.88-2.42-4.54,0-.14,2.56-.6,3.71S258.58,70,257.66,71c-2.59,1-5.16,1.29-7.68-.23-.11-3.11.19-5.82-3.33-8.16-9.46-6.3-11.65-15.11-6.88-23.92,5-9.18,13.48-12,24.66-8.12,4.63.55,6.86,3.85,8.58,7.38-.16-4.26-7.4-5.43-5.24-11.07,9.12-12.16,22-12.69,31.22-.77,2.38,3.08,3.74,3.18,7,1.85,8.41-3.47,16.22-1.67,22.55,4.67,6.64,6.66,8.16,14.53,4,23.3a46,46,0,0,0-4.45,26.39c0,1.35-.65,1.75-1.88,1.2C319,85.67,315,91.89,310.39,96.94c-3.57,3.88-5.41,2.68-7.39-.76-3.49-6.05-6.77-12.22-10.14-18.33C292.05,75,291.88,71.12,287.35,74.59Z"/><path class="cls-3" d="M45.77,243.46c3.57.7,7.48-.55,10.74,1.89-.2.21-.38.56-.61.61-.87.17-1.13.38-.75.39,5.68.1,11.36,0,17-.2-2.54.31-5.07.8-7.44-.79,12.61-2.83,25.72-3.94,37.06-11.08,6.36-4,13.25-7.34,16.57-14.73,4.6,10,9.14,19.93,13.83,29.83,1.07,2.25,1.64,4.27.15,6.46-.91,5.93-5.76,8.4-10.15,11C100.11,279.79,77,287.93,51,280.76c-1.75-7.6-3.87-15.16-3.26-23.09.73-2.92,1.47-5.84-.52-8.59C45.25,247.57,45.59,245.5,45.77,243.46Z"/><path class="cls-3" d="M209.66,289.57c0-.63,0-1.25.05-1.87,2-2.24,1.51-5.47,3-7.91,1.45-4.51,1.06-10,6.75-12.2,2.18.76,2.72,3,4.14,4.48,6.09,7.32,10.06.91,14.51-2.24,3.42-2.67-.25-4.11-1.08-6a10.81,10.81,0,0,1-2.69-9.54C241.19,231,250.77,209,265,189.2c1.51-2,2.87-4.25,5.4-5.27l2.77-1.89c2.44,7.46-3.1,13.09-4.57,19.66-.75,3.37-2.55,6.43-3.7,9.7a19,19,0,0,1-.9,2.42c-.68,1.57-1.38,3.13-2,4.73-3.12,9-6.7,17.84-7.69,27.43-.85,7.34-4.56,14-5.32,21.32a23.1,23.1,0,0,1-1,4.34c-4.91,23.45-8.49,47.1-9.08,71.06-.24,9.65-2.36,19.08-2.16,28.72a8.17,8.17,0,0,1-2.51,6.33l-.1-.43c-6.36-2.55-5.38-8.94-6.82-13.81C223.4,350.3,221,336.64,216.1,323.7c-1.24-5.95-7.85-2.58-10.53-6a13.1,13.1,0,0,1-.09-5C205.75,304.74,209.69,297.51,209.66,289.57Z"/><path class="cls-3" d="M292.63,465.8c13.56-24.38,12.47-48.41-1.7-72.13,9.26-3.15,19-2.3,28.5-3.45,9.95,4.49,12.32,13.83,14.81,23.11,5,16.05,4.21,32-.73,47.92-.83,2.69-2.87,5.13-2.1,8.24l1.7,1.8-5.42-.38c-4.55-1.07-8.92-3.62-13.84-1.68Z"/><path class="cls-8" d="M337.05,194.6c-9.21,16-15.41,33.1-19.88,50.91-.59,1.36-1.58,2.2-3.09,1.71-.91-.3-.79-1.19-.48-2,3.52-24.86,15-46.37,28.22-67.15,1.71-2.7,4.11-5,4.67-8.29l4.54,3.64-7.47,11.77C341.67,188.55,340.51,192.37,337.05,194.6Z"/><path class="cls-9" d="M266.35,189.38c-13,20.35-22.48,42.32-30.46,65-1.65,6.94-1.73,7-6.11,3.85,1.08-14.72,7.91-27.5,13.7-40.63A74,74,0,0,1,252,203.19l11-14.27,1.42-1.52C266.06,187.06,266.89,187.54,266.35,189.38Z"/><path class="cls-10" d="M121.53,474.76a45.6,45.6,0,0,0,13.82,1.84q51-.17,102.09,0c3.11,0,6.51-1.07,9.26,1.47-1.41,1.46-3.25,1.08-5,1.08q-53.53,0-107.07,0a7.88,7.88,0,0,1-4.25-.77C127,478.2,123.25,479,121.53,474.76Z"/><path class="cls-11" d="M130.42,478.39l116.28-.33c.4.11.8.21,1.2.29,1.94-1.19,3.85-1.69,5.62.29-1.89,2-4.35,1.41-6.64,1.41q-54.54,0-109.09,0C135.27,480,132.44,480.89,130.42,478.39Z"/><path class="cls-12" d="M51,280.76c25.9,4.6,49.47-1.51,71.41-15.34a32,32,0,0,0,10-9.58,9.12,9.12,0,0,1,1.55.43c-3.57,9.41-12.26,12.93-20.24,16.88-19.84,9.82-40.61,14.42-62.75,9.37C50.93,281.94,50.94,281.35,51,280.76Z"/><path class="cls-13" d="M294.27,143.18c-1.46,7.21-7.68,10-12.83,13.74-.92,1.43-1.88,1.55-2.9.1q-.35-6.93-.7-13.87l11.26-5.07C292.31,138.28,293.73,140.28,294.27,143.18Z"/><path class="cls-14" d="M262.88,212.6c1.6-10.8,8.45-19.84,10.28-30.56l1.59-1.63c-1.62,7.32,3.06,12.86,5.38,19.07C274.06,203.44,270.83,211.12,262.88,212.6Z"/><path class="cls-15" d="M253.52,478.64l-5.61-.29c5.35-7.19-.32-13.77-1.14-20.62l8.21,1.85c-.64,3.61,1.2,6.74,2,10.08C257.84,473.41,257.08,476.57,253.52,478.64Z"/><path class="cls-16" d="M396.77,478.07a108.89,108.89,0,0,1,40.28,0Z"/><path class="cls-17" d="M93.59,145.16q.75-3.1,1.51-6.23c6.06,5.94,1.69,13.4,2.93,20C91.34,156,97.76,148.9,93.59,145.16Z"/><path class="cls-18" d="M518.06,402.33a36.5,36.5,0,0,1,0-22.64Q518.05,391,518.06,402.33Z"/><path class="cls-19" d="M267.77,26.9c.23,5.14,6.88,7,6.42,13.57-3.52-3.73-5.78-7.75-9.76-9.88Z"/><path class="cls-20" d="M326.17,83.54l1.88-1.2c4.26-.26,8.77-1.69,12,2.66C335.45,84.34,330.54,86.48,326.17,83.54Z"/><path class="cls-21" d="M313.85,469.23c5-2.94,9.59-1.87,13.84,1.68Z"/><path class="cls-22" d="M278.54,157l2.9-.1c-1.54,3.62.72,8.79-4.46,10.93Z"/><path class="cls-23" d="M259.22,142.8a19.61,19.61,0,0,1,15.54,0A48.52,48.52,0,0,1,259.22,142.8Z"/><path class="cls-24" d="M234.84,118.66a12.8,12.8,0,0,1-.08,12.08A22,22,0,0,1,234.84,118.66Z"/><path class="cls-25" d="M346.69,102.44a10,10,0,0,1-.06-10.12A16.21,16.21,0,0,1,346.69,102.44Z"/><path class="cls-26" d="M266.35,189.38l-2-2c1.07-2.76,3.14-3.78,6-3.46Z"/><path class="cls-27" d="M105.25,118.31c-2.25-3.35-2.13-6.72-.12-10.12Z"/><path class="cls-21" d="M361.37,173.09c-2.19,2.56-4.51,2.52-6.94.36l6.94-1.52Z"/><path class="cls-28" d="M361.37,173.09v-1.16l8.69-.26C367.51,174.25,364.3,172.83,361.37,173.09Z"/><path class="cls-29" d="M354.43,474.55c3-2.23,5.88-2.55,8.64.35Z"/><path class="cls-30" d="M47.17,249.08c3.06,2.69,2.61,5.59.52,8.59C47.52,254.8,47.34,251.94,47.17,249.08Z"/><path class="cls-31" d="M250,70.79l7.68.23-7.82,1.83a8.23,8.23,0,0,1-.4-1.49C249.42,71.19,249.78,71,250,70.79Z"/><path class="cls-32" d="M73.9,138c1.72-2,3.54-4.31,5.7-.61C81,139.8,82,142.48,83.19,145c3,3,2.6,6.45,1.1,10l-3.47,6.19a1,1,0,0,1-1.59-.11c-3.21-6.36-7.48-12.32-7.44-19.9C71.44,139.45,72.22,138.42,73.9,138Z"/><path class="cls-33" d="M56.37,139.74c1.54,7,6.1.15,8.78,1.92L61.6,146.9c-1.16.65-.41,2.77-2.23,2.91C52.5,148.2,55.54,143.64,56.37,139.74Z"/><path class="cls-34" d="M64.74,245.36h8.61l0,1.3H51c1.35-2.18,3.69-.69,5.48-1.31Z"/><path class="cls-35" d="M79.23,161.11a9.45,9.45,0,0,1,1.59.11,42.72,42.72,0,0,1-3.32,15.52c-.56.8-1.12.84-1.69,0C75.79,171.28,77.88,166.28,79.23,161.11Z"/><path class="cls-36" d="M58,174.7c9.39,1.78,6.29-4,5.24-8.61,4.05,1.88,4.57,5.54,3.17,8.86-1.7,4-5.34,2.28-8.39,1.41a1,1,0,0,1-.39-1.1C57.75,174.88,57.87,174.7,58,174.7Z"/><path class="cls-37" d="M63.28,166.16c-4.12-3.53-9.27-6.2-10.4-12.27C57.06,157.38,62.05,160.17,63.28,166.16Z"/><path class="cls-38" d="M58,174.7c0,.55,0,1.11,0,1.66-3.21,1.59,1.09,6.5-3.33,7.56-1.76.74-2-.23-1.93-1.66,3.77-3.22-1-6.3-.15-9.48C54.4,173.42,56.69,172.69,58,174.7Z"/><path class="cls-39" d="M52.76,182.26l1.93,1.66c-5,6.91-6.4-1.45-9.53-2.91Z"/><path class="cls-40" d="M59.37,149.81l2.23-2.91L65,154.64C60.65,155,61.76,150.4,59.37,149.81Z"/><path class="cls-41" d="M75.81,176.74c.57,0,1.13,0,1.69,0-.38,3.63.67,7.41-1.1,11.28C74.74,184.09,75.79,180.39,75.81,176.74Z"/><path class="cls-42" d="M84.29,155a24,24,0,0,0-1.1-10c5.61,2.36,2,7.2,2.89,10.81Z"/><path class="cls-43" d="M73.9,138c-.71,1.08-1.41,2.16-2.11,3.24l-1.46-3.48c.73-.73,1.4-2,2.2-2.06C74,135.5,73.6,137.08,73.9,138Z"/><path class="cls-44" d="M40.32,164.6c3.32-4.49,4.06.42,5.83,1.6Z"/><path class="cls-45" d="M375.52,383.05c6.88-4.1,4.46-8.17,1.42-14.07a363.47,363.47,0,0,1-27.29-71.05,2.49,2.49,0,0,1,1.11-3c7.54,22.05,14,44.49,24.54,65.43.51,1,.76,2.21,1.3,3.23,8.4,15.82,8.4,15.89,27.07,15.85,6.37,0,12.57.39,18.35,4.14l-11.2-.56a93.31,93.31,0,0,0-28.36,0Z"/><path class="cls-46" d="M337.05,194.6a16.94,16.94,0,0,1,6.51-9.37c-5.29,22.3-4.7,44.75-1.63,67.26-6.45-5-4.49-12.66-4.89-18.92-.7-11-1.83-22.26,1.18-33.25C338.75,198.41,338.91,196.2,337.05,194.6Z"/><path class="cls-47" d="M331.41,469.49c-2.62-7.47,2.73-13.58,3.94-20.37,2.23-12.46.24-24.16-2.08-36.08.54-.83,1.08-.87,1.62,0C341.64,432.35,339.58,451.11,331.41,469.49Z"/><path class="cls-48" d="M334.89,413.05h-1.62c-2.16-8.27-5.36-15.92-12.46-21.3-1.06-.86-2.85-1.33-1.74-3.32l15.83-1.7a2,2,0,0,1,0,3.21h-9.65C328.68,398.19,335.12,404.35,334.89,413.05Z"/><path class="cls-49" d="M350.84,386.57c6.27-5.43,13.56-4.66,20.92-3.47C365.07,385.93,358,386.62,350.84,386.57Z"/><path class="cls-50" d="M345.41,279.19c-2.39-7.51-6.48-14.76-3.46-23.07a58.16,58.16,0,0,1,3.6,21,1.22,1.22,0,0,1,.41,1.4C345.77,279,345.59,279.19,345.41,279.19Z"/><path class="cls-3" d="M382.46,383a49.26,49.26,0,0,1,28.36,0Z"/><path class="cls-51" d="M345.41,279.19c0-.68.09-1.37.14-2.05q2.61,8,5.21,15.93C344.65,290.1,346.48,284.09,345.41,279.19Z"/><path class="cls-52" d="M334.9,389.93v-3.21c4.65.11,9.29-2.4,14-.08C344.6,389.44,339.4,388.18,334.9,389.93Z"/><path class="cls-53" d="M121,317.8l.41-1.75c1.76-5.95,6-7.82,11.88-7.75,10.39.12,20.78-.13,31.16.39a4,4,0,0,1,2.93,0c2.48,3.92,4,8,2,12.62-.65,5.86,5.45,11.3,1.08,17.39-13.89,2-27.79,1.66-41.69.13-5-4.71-4.14-11.84-7.26-17.31a3.09,3.09,0,0,1-1.12-1.73A3.81,3.81,0,0,1,121,317.8Z"/><path class="cls-54" d="M216.62,321.39c3.53,3.08,4.16,7.47,5.35,11.64,4.19,14.73,6.44,30,12.18,44.3a63.66,63.66,0,0,0,1.35,8.29c1.77,5.93-.76,7.15-5.93,5.91-5.72-23.5-10.08-47.36-18.91-70C212.61,319.67,214.6,319.75,216.62,321.39Z"/><path class="cls-55" d="M169.36,321.31c-1.51-3.9-2.65-7.87-2.39-12.12a1.61,1.61,0,0,1,1.74-1c6.19.65,4.72,6.76,7.17,10.07a1.39,1.39,0,0,1,1.16,1.19,1.72,1.72,0,0,1-.86,1.48Z"/><path class="cls-56" d="M128.75,338.83l41.69-.13c.11.49.21,1,.32,1.48a358.38,358.38,0,0,1-42.1.11c-.11,0-.3-.46-.28-.68A2.64,2.64,0,0,1,128.75,338.83Z"/><path class="cls-57" d="M121.38,319.57c0,.65.08,1.3.11,1.94l-1.87,0a105.7,105.7,0,0,1-24.44.14l-5.47-.45c0-.52,0-1,0-1.56A113.74,113.74,0,0,1,121.38,319.57Z"/><path class="cls-3" d="M176.18,321a3.24,3.24,0,0,1,.07-1.42,88.76,88.76,0,0,1,26.19-.08l.17.1c.61.34.8.64.56.92a.89.89,0,0,1-.67.39Z"/><path class="cls-58" d="M95.18,321.68l24.44-.14C111.49,324.1,103.34,323.83,95.18,321.68Z"/><path class="cls-59" d="M202.14,386.83l-15.33.19c6.66-4.76,13.92-.8,20.94-.94Z"/><path class="cls-60" d="M216.62,321.39l-6,.12a11.12,11.12,0,0,0-1.09-.42c-1-1.26-4.48.11-3.39-3.28C209.54,319.34,215.11,314.44,216.62,321.39Z"/><path class="cls-61" d="M206.18,317.81l3.39,3.28-7.07-.21c0-.44.06-.88.11-1.31,2.54-1.85,1.43-4.64,1.84-7.05a1.07,1.07,0,0,1,1.74,0Z"/><path class="cls-62" d="M174.84,404.28c2.52.18,4.34,1.37,5.72,4.33-3.81.37-6-3.64-9.36-2.93Z"/><path class="cls-63" d="M212,448l6.43,2.17C214.19,452.36,212.16,451.67,212,448Z"/><path class="cls-64" d="M170.64,394.77c4.91-1.44,7.65-1.34,10.47,0Z"/><path class="cls-65" d="M195.35,399.18l-7.29-1.84c2-.32,4.21.28,5.66-1.74l4.94,2C198.84,400.86,196.87,399.54,195.35,399.18Z"/><path class="cls-66" d="M191.8,426.77l-7-2.91,1.95-2a9.85,9.85,0,0,1,5.47,3.51c.53.48.65.84.36,1.09A1.11,1.11,0,0,1,191.8,426.77Z"/><path class="cls-67" d="M247,266.74c.08-7.23,4-13.51,5.13-20.46,2.37-6.31,3.33-13.17,7.34-18.84a8.51,8.51,0,0,1,3.13-2.24c2.69-.71,4.93.24,6.94,2a11.57,11.57,0,0,1,1.77,3c4.62,2.57,6.49,6.77,7.05,11.79A85.49,85.49,0,0,1,270.91,272c-7.69,22.75-17.58,44.74-23.21,68.2-.22.91-1.52,1.57-2.32,2.35-2.39,2.72-1.43,5.7-.69,8.66,0,1.94.56,4-1.57,5.37-1.58,2.76-2.79,5.59-1.62,8.86l-.15,7a6.86,6.86,0,0,1-1.82,7.05l-5.28-1.76c1.15-33.23,3.81-66.32,9-99.18.48-3,2.1-5.9,3.19-8.85a1.93,1.93,0,0,1,1,1.72C247.66,269.83,247.84,268.23,247,266.74Z"/><path class="cls-3" d="M329.71,286.73c-.1.47-.19.93-.26,1.41-5.39,11-6.17,23.71-12.77,34.26-3.28,5.24-4.51,14-11.94,13.4-6.49-.5-8-8.51-10.09-14.11-4.33-11.85-6.84-24.05-5-36.78,1.18-8.64,2.75-17.16,7.3-24.82,2.44-4.11,5.29-7.64,10.38-8.46a56.35,56.35,0,0,0,10.31,0c5.84,1.54,8.46,5.93,10,11.29a13.88,13.88,0,0,1-.1,3.81A37.45,37.45,0,0,0,327,282a21.79,21.79,0,0,0,1.43,3A20.06,20.06,0,0,1,329.71,286.73Z"/><path class="cls-68" d="M284,206.42c-1.06-5.6.37-8.33,6.95-8.72,13.17-.79,24.17-7.72,35.11-14.42-10.8,15.71-20.13,32.47-33.42,46.39a4.54,4.54,0,0,1-3-1.93c-2.16-3.39-2.93-7.38-4.81-10.9a13,13,0,0,1-.8-2.27C282.78,211.86,285.22,209.13,284,206.42Z"/><path class="cls-69" d="M290.79,284c-.68,15.15,1.41,29.84,7.93,43.62,1.28,2.72,2.51,6.86,5.94,7.06,3.82.23,5.71-3.62,7.43-6.64a109.07,109.07,0,0,0,12.44-31.79c.62-2.94-.19-7.55,4.92-8.08-2.77,16.21-8,31.46-17.21,45.23-1.42,2.12-5.84,4.75-.26,7.37a2.28,2.28,0,0,1-.07,3.52c-5.45-5.28-11.82-1.51-17.77-1.8a2.32,2.32,0,0,1,.41-3.41c5.09.11,8.22-.11,3.82-6.45-8.78-12.64-10.64-27.39-11-42.38-.06-2.33-.16-4.72,2.07-6.33l.72-.45Z"/><path class="cls-70" d="M291,227.88l1.59,1.79c.05,7.61-5.46,12.71-8.68,18.8-4.19,7.92-6.79,16.74-13,23.55l5.7-31.84c-.55-2.77.47-5.56-.09-8.33a9.41,9.41,0,0,1,.84-3.5,7.09,7.09,0,0,1,1.48-1.84c1.86-1.42,3.16-3.4,4.81-5C290.8,218.22,287.25,227.22,291,227.88Z"/><path class="cls-71" d="M290.79,284a6.4,6.4,0,0,0-1.38-.08c-3.54-12.68,5.79-31.53,17.86-36,2.15-.8,4.66-.72,6.33-2.65,1,2.17,2.36.52,3.57.25,14.94,10.47,16.57,25,12.54,41.22l-1.87-.66c-1.69-2.5-1.77-5.34-1.74-8.21,0-1.85,0-3.71,0-5.56-.7-3.05,2.1-6.09,0-9.16-2.14-4.19-3.65-8.93-9-10.31a13.89,13.89,0,0,1-8.6-.05c-9.25,2.77-11.46,10.91-14.21,18.63C292.87,275.52,293.37,280.17,290.79,284Z"/><path class="cls-72" d="M319.07,388.42l1.74,3.32-29.88,1.93-1.86-1.8C298.81,388.5,309.26,391.19,319.07,388.42Z"/><path class="cls-73" d="M311.91,344.25c0-1.18,0-2.35.07-3.52,1.29-.55,2.56-1.47,3.89-1.57,2.6-.21,5.78,0,5.78,3.4s-3.08,3.58-5.74,3.14A21.58,21.58,0,0,1,311.91,344.25Z"/><path class="cls-74" d="M294.55,339c-.14,1.14-.28,2.28-.41,3.41a5,5,0,0,1-.87,0c-2.71-.4-5.89,1.39-8-1.56a2.07,2.07,0,0,1,.64-3C289,336,291.92,336.71,294.55,339Z"/><path class="cls-75" d="M241.5,365.46c-3.4-3.67-2.05-6.48,1.62-8.86C243,359.64,243.14,362.7,241.5,365.46Z"/><path class="cls-76" d="M239.53,379.51q.91-3.52,1.82-7.05c2.61,2.41,2.55,4.8-.06,7.16A9.41,9.41,0,0,0,239.53,379.51Z"/><path class="cls-77" d="M244.69,351.23c-2.05-3.07-2.71-6,.69-8.66Z"/><path class="cls-67" d="M284.17,222.35c-1.1,2-1.15,4.69-4,5.27-3.14-1-6.13,1.35-9.27.43l-1.18-.17-6.83-1.78c-3.7-4.17-1.48-8.39-.09-12.59a.73.73,0,0,0,.11-.91c5.57-4.61,9.44-11.46,17.25-13.12,3.54,2.2.72,6.6,3.17,9.17,2.79,1.7.14,5,2.08,7l-.11-.06C286.7,218.11,284.79,220.13,284.17,222.35Z"/><path class="cls-78" d="M278.63,109.23c-.65-9.3,3.64-12.84,9.07-13.09s10,2.9,10.14,9.5-3.19,10.76-9.67,10.92C282,116.71,279.06,112.46,278.63,109.23Z"/><path class="cls-79" d="M282.25,81.33l4.54,1.54c.88,4.15-3.19,3.95-5,5.72-4.7.73-8.87.41-10.45-5.16C274.24,78.93,279.25,85.37,282.25,81.33Z"/><path class="cls-80" d="M271.33,83.43c2.55,3.62,7.51,2.33,10.45,5.16a2.46,2.46,0,0,1-.06,1.42c-3.34,2.95-6.89,2.32-10.51.62-2.43-.35-4.92-1.16-4.79-4C266.55,84,268.45,82.62,271.33,83.43Z"/><path class="cls-81" d="M253.58,86.93c-1.72-1.06-4.49-2.47-2.66-4.45,2-2.12,5.82-1.64,8.23-.56,3.81,1.71,1,4.28-.27,6.42C256.66,89.57,255.15,88.13,253.58,86.93Z"/><path class="cls-82" d="M253.58,86.93l5.3,1.41c-1.24,2.74-1.77,5.92-4.67,7.65C249.46,93.22,254.46,89.89,253.58,86.93Z"/><path class="cls-83" d="M294.27,143.18l-5.17-5.1c1.86-1.27,3.2-3.51,6-3.19C296.59,137.86,295.74,140.55,294.27,143.18Z"/><path class="cls-84" d="M287.35,74.59c-.38-1.37-1.46-3.12-1-4,.94-1.75,2.72-.67,3.51.45,1.44,2,5.88,2.9,3,6.83C291.08,76.67,290.08,74.16,287.35,74.59Z"/><path class="cls-85" d="M262.61,111.5l6.4-6c1.11,4.23-1.8,6-4.53,7.82C262.58,114,262.24,113.13,262.61,111.5Z"/><path class="cls-86" d="M262.61,111.5l1.87,1.83c-2.59,2.2-5.14,2.43-8.14-.53C258.25,110.77,260.6,111.72,262.61,111.5Z"/><path class="cls-87" d="M281.84,91.64c-2.87,3.82-6.8,1.82-10.35,1.84-.14,0-.38-.43-.38-.66a2.12,2.12,0,0,1,.34-.8C274.86,90.58,278.35,91.1,281.84,91.64Z"/><path class="cls-88" d="M329.48,93.7a4.52,4.52,0,0,1,5.58-1.1c.36.17.42,2,.36,2-1.37.35-2.78.55-4.18.78A3.75,3.75,0,0,1,329.48,93.7Z"/><path class="cls-89" d="M281.84,91.64,271.45,92c-.1-.46-.18-.92-.24-1.39L281.72,90A8.88,8.88,0,0,1,281.84,91.64Z"/><path class="cls-90" d="M285.38,215.62c-2.09-1.9-1.37-4.65-2.08-7,.22-.74.43-1.49.65-2.23C286.27,209.2,285.56,212.45,285.38,215.62Z"/><path class="cls-36" d="M329.48,93.7l1.76,1.69-6.13,1.76C325.78,94.28,327.64,94,329.48,93.7Z"/><path class="cls-91" d="M198.43,416.08,224,424.16C217.68,425.46,207.13,422.51,198.43,416.08Z"/><path class="cls-92" d="M208,432.36l16.26,5c-6.77,2-12.23-1.54-18.08-3.39C206,432.46,206.16,431.42,208,432.36Z"/><path class="cls-93" d="M208,432.36,206.22,434l-14.42-7.18a6.5,6.5,0,0,1,.39-1.37Z"/><path class="cls-94" d="M196.45,415.25c-4.92,1.13-6.81-.88-9.84-3.23C190.79,411.55,192.87,413.12,196.45,415.25Z"/><path class="cls-95" d="M212.72,403.85l8.55,2.83C218,408.42,216.07,407.74,212.72,403.85Z"/><path class="cls-96" d="M195.35,399.18l3.31-1.56c1.45.24,3.61,1.35,2.75,2.28C199.67,401.78,197.26,400.65,195.35,399.18Z"/><path class="cls-97" d="M165.55,309.32c-10.61,3.24-21.47,1-32.2,1.26-5.11.14-9.15,1-11.91,5.47-1.22-3.52.22-5.85,3.35-7.4C138.42,306.65,152,305.61,165.55,309.32Z"/><path class="cls-98" d="M165.55,309.32l-40.76-.67.24-1.4c10.7-2.25,21.59.19,32.33-1.32,1.72-.32,3.19.4,4.64,1.16l6.71,1.14-1.74,1h-.72Z"/><path class="cls-99" d="M158.55,307l-33.52.22c3-3.74,7-1.17,10.49-1.73,7-1.12,14.44,1.89,21.26-1.86C159.86,303.47,159.6,305,158.55,307Z"/><path class="cls-100" d="M121.38,319.57l-31.65.1c10.23-4.07,20.89-.84,31.3-1.87C121.15,318.39,121.27,319,121.38,319.57Z"/><path class="cls-101" d="M158.55,307l-1.77-3.37c-.09-1.18-.17-2.36-.25-3.54,3.37,1.11,3.9,4.45,5.47,7Z"/><path class="cls-102" d="M245.05,217.31c-4.3,13.62-11,26.41-14.32,40.36-4.69,4.37-6.2,10.44-8.64,16-2.11-1.13-1.82-3.13-1.83-5-3-2.07-2.46-4.46-1.35-7.53a176.29,176.29,0,0,1,13.68-29.78l0,0c2.29-2.71,3.32-6.18,5.33-9l5.27-6.84A2.2,2.2,0,0,1,245.05,217.31Z"/><path class="cls-50" d="M232.59,231.36c-3.68,8.57-7.44,17.11-11,25.73-1.52,3.67-3.94,7.37-1.34,11.58-6.79,1.46-3.22,8.94-7,12.12a2.88,2.88,0,0,1-1.61-1.72C217.45,262.66,221.2,245.33,232.59,231.36Z"/><path class="cls-103" d="M206.19,312.52h-1.75c-.35-8.13,2.82-15.45,5.22-22.95C211.66,297.69,207.79,304.94,206.19,312.52Z"/><path class="cls-104" d="M245.05,217.31l-1.88-1.81c-.27-6.38,4.59-9.11,8.79-12.31C250.47,208.29,248.69,213.25,245.05,217.31Z"/><path class="cls-105" d="M202.44,319.47l-26.19.08a1.25,1.25,0,0,1-.37-1.25c2.4-4.91,5.46-.12,8.08-.17C190.07,318,196.55,315.92,202.44,319.47Z"/><path class="cls-49" d="M211.6,279.07l1.61,1.72c.08,2.94-.18,5.7-3.5,6.91C209.61,284.66,209.61,281.65,211.6,279.07Z"/><path class="cls-50" d="M237.9,222.34c-.52,3.76-1.71,7.12-5.33,9C233.09,227.63,234.54,224.42,237.9,222.34Z"/><path class="cls-106" d="M72.06,261.4c-.28,3-1.55,5.19-4.87,4.89-2.78-.25-3.89-2.34-3.87-5s1.16-4.7,3.95-4.9C70.58,256.18,71.83,258.4,72.06,261.4Z"/><path class="cls-107" d="M222.09,273.69c-1.15-7.51.47-13.53,8.64-16,4.83,3.79,2.71-3.33,5.16-3.29-.45,3.47-.26,6.72,3.12,8.84,2.39,2.08,1.87,4.31.37,6.6C232.81,279.74,229.81,280.41,222.09,273.69Z"/><path class="cls-108" d="M260.92,228.14l-8.82,18.13a86.58,86.58,0,0,1,8.65-29.11A15.77,15.77,0,0,1,260.92,228.14Z"/><path class="cls-109" d="M260.92,228.14c-.06-3.66-.11-7.32-.17-11,.06-1.56.48-2.91,2-3.65,0,4.19-1.6,8.4.09,12.59Z"/><path class="cls-77" d="M247,266.74c2.3,2,1.31,4.45,1.36,7.19-2.4-1.1-1.25-3-1.86-4.21C246.64,268.73,246.8,267.74,247,266.74Z"/><path class="cls-110" d="M239.38,269.82q-.19-3.3-.37-6.6C242.26,266.89,242.33,268.22,239.38,269.82Z"/><path class="cls-49" d="M316.47,454.55c3,.56,5.13,2.31,4.94,5.21a4.67,4.67,0,0,1-4.82,4.19c-3.27.07-4.58-2.09-4.55-5.1S314.06,455,316.47,454.55Z"/><path class="cls-111" d="M303.6,439.46V424.08l.75,0v15.38Z"/><path class="cls-112" d="M278.49,231.35a16.4,16.4,0,0,1-1.88,8.83c-2.14-2.74-1.82-7.8-7.11-7.6a2.38,2.38,0,0,1,0-.8c.11-.24.38-.4.58-.6C272.93,228.76,275.72,229.27,278.49,231.35Z"/><path class="cls-113" d="M278.49,231.35l-8.42-.17c-.12-1.1-.25-2.2-.38-3.3l-.05-.07a15.29,15.29,0,0,1,9,.39Z"/><path class="cls-114" d="M327.64,272.36c0,1.49,0,3,0,4.49-1.63,2.23.43,5.33-1.76,7.42a21.32,21.32,0,0,1,.1-17.6C327.7,268.23,326.37,270.67,327.64,272.36Z"/><path class="cls-115" d="M325.89,284.27q.89-3.7,1.76-7.42c.07,3.07.13,6.15.19,9.22Z"/><path class="cls-115" d="M327.64,272.36,326,266.67c.05-1.18.11-2.35.16-3.53C329,265.84,327.64,269.2,327.64,272.36Z"/><path class="cls-116" d="M308.54,252.78a14.26,14.26,0,0,1,8.6.05C314.26,255,311.4,255.07,308.54,252.78Z"/><path class="cls-90" d="M284.17,222.35c.37-2.27.73-4.53,1.1-6.79,4.07,3.1,4.11,8.08,5.73,12.32C286.8,228.42,289.32,220.64,284.17,222.35Z"/><path class="cls-117" d="M278.67,228.2c-3.09,1.72-6,.08-9-.39,3.45-2.61,7-2.52,10.5-.19A3.75,3.75,0,0,1,278.67,228.2Z"/><path class="cls-3" d="M67.27,258.94a2.19,2.19,0,0,1,2.5,1.8,2.29,2.29,0,0,1-2.14,3c-.71,0-1.8-1.33-2.1-2.25C65.15,260.31,66.1,259.41,67.27,258.94Z"/><path class="cls-118" d="M230.87,263.67c2.28.55,3.54,2.13,3.21,4.39-.37,2.48-1.79,4.37-4.71,4a3.22,3.22,0,0,1-2.87-3.73A4.68,4.68,0,0,1,230.87,263.67Z"/><path class="cls-119" d="M316.2,457.39c1,0,2.24.2,2.26,1.73a2.14,2.14,0,0,1-2.09,2.3c-.63,0-1.54-.86-1.85-1.54C313.92,458.57,314.57,457.68,316.2,457.39Z"/></g></g></svg>