<svg width="27" height="61" viewBox="0 0 27 61" fill="none" xmlns="http://www.w3.org/2000/svg">
<path fill-rule="evenodd" clip-rule="evenodd" d="M26.1134 30.5606C26.6182 25.2722 26.891 20.4457 26.891 17.546C26.891 8.14658 24.0247 0.526855 19.6803 0.526855C17.6045 0.526855 15.5286 3.53023 13.4528 3.53023C11.377 3.53023 9.3012 0.526855 7.22538 0.526855C2.88097 0.526855 0.0146484 8.14658 0.0146484 17.546C0.0146484 20.4457 0.287441 25.2722 0.792268 30.5606H26.1134Z" fill="#B4DFFB"/>
<path fill-rule="evenodd" clip-rule="evenodd" d="M7.8808 30.5613H19.0247V37.5692L17.0581 41.5737V56.5906L13.4527 60.5951L9.84736 56.5906V41.5737L7.8808 37.5692V30.5613Z" fill="#979797"/>
<path d="M8.53634 4.53125C5.64007 4.53125 3.29218 8.117 3.29218 12.5403" stroke="white" stroke-width="2.91686" stroke-linecap="round"/>
<path fill-rule="evenodd" clip-rule="evenodd" d="M9.84747 49.582L17.0582 52.5854V54.5877L9.84747 51.5843V49.582Z" fill="#D8D8D8"/>
<path fill-rule="evenodd" clip-rule="evenodd" d="M9.84747 45.5771L17.0582 48.5805V50.5828L9.84747 47.5794V45.5771Z" fill="#D8D8D8"/>
<path fill-rule="evenodd" clip-rule="evenodd" d="M9.84729 41.5732L17.058 44.5766V46.5789L9.84729 43.5755V41.5732Z" fill="#D8D8D8"/>
</svg>
