<svg width="129" height="116" viewBox="0 0 129 116" fill="none" xmlns="http://www.w3.org/2000/svg">
<path d="M33.5201 9.75299L37.4002 1.57573L39.4676 2.55673L35.5875 10.734L33.5201 9.75299ZM31.9147 5.2485L32.8957 3.18109L41.073 7.06122L40.092 9.12864L31.9147 5.2485ZM47.8257 16.541L51.7058 8.36377L53.7732 9.34477L49.8931 17.522L47.8257 16.541ZM46.2203 12.0365L47.2013 9.96913L55.3786 13.8493L54.3976 15.9167L46.2203 12.0365ZM62.1312 23.3291L66.0114 15.1518L68.0788 16.1328L64.1987 24.3101L62.1312 23.3291ZM60.5259 18.8246L61.5069 16.7572L69.6841 20.6373L68.7032 22.7047L60.5259 18.8246ZM76.4368 30.1171L80.317 21.9399L82.3844 22.9209L78.5042 31.0981L76.4368 30.1171ZM74.8315 25.6126L75.8125 23.5452L83.9897 27.4253L83.0087 29.4928L74.8315 25.6126ZM90.7424 36.9052L94.6226 28.7279L96.69 29.7089L92.8098 37.8862L90.7424 36.9052ZM89.1371 32.4007L90.1181 30.3333L98.2953 34.2134L97.3143 36.2808L89.1371 32.4007ZM105.048 43.6932L108.928 35.5159L110.996 36.4969L107.115 44.6742L105.048 43.6932ZM103.443 39.1887L104.424 37.1213L112.601 41.0014L111.62 43.0689L103.443 39.1887ZM119.354 50.4813L123.234 42.304L125.301 43.285L121.421 51.4622L119.354 50.4813ZM117.748 45.9768L118.729 43.9093L126.907 47.7895L125.926 49.8569L117.748 45.9768ZM23.6602 30.5324L27.5403 22.3551L29.6077 23.3361L25.7276 31.5134L23.6602 30.5324ZM22.0548 26.0279L23.0358 23.9605L31.2131 27.8406L30.2321 29.908L22.0548 26.0279ZM37.9658 37.3204L41.8459 29.1432L43.9133 30.1242L40.0332 38.3014L37.9658 37.3204ZM36.3604 32.8159L37.3414 30.7485L45.5187 34.6286L44.5377 36.6961L36.3604 32.8159ZM52.2714 44.1085L56.1515 35.9312L58.2189 36.9122L54.3388 45.0895L52.2714 44.1085ZM50.666 39.604L51.647 37.5366L59.8243 41.4167L58.8433 43.4841L50.666 39.604ZM66.577 50.8965L70.4571 42.7192L72.5245 43.7002L68.6444 51.8775L66.577 50.8965ZM64.9716 46.392L65.9526 44.3246L74.1299 48.2047L73.1489 50.2721L64.9716 46.392ZM80.8825 57.6846L84.7627 49.5073L86.8301 50.4883L82.95 58.6655L80.8825 57.6846ZM79.2772 53.1801L80.2582 51.1126L88.4355 54.9928L87.4545 57.0602L79.2772 53.1801ZM95.1881 64.4726L99.0683 56.2953L101.136 57.2763L97.2556 65.4536L95.1881 64.4726ZM93.5828 59.9681L94.5638 57.9007L102.741 61.7808L101.76 63.8482L93.5828 59.9681ZM109.494 71.2606L113.374 63.0834L115.441 64.0644L111.561 72.2416L109.494 71.2606ZM107.888 66.7561L108.869 64.6887L117.047 68.5689L116.066 70.6363L107.888 66.7561ZM13.8003 51.3118L17.6804 43.1345L19.7479 44.1155L15.8677 52.2928L13.8003 51.3118ZM12.195 46.8073L13.176 44.7399L21.3532 48.62L20.3722 50.6874L12.195 46.8073ZM28.1059 58.0998L31.986 49.9225L34.0535 50.9035L30.1733 59.0808L28.1059 58.0998ZM26.5005 53.5953L27.4815 51.5279L35.6588 55.408L34.6778 57.4754L26.5005 53.5953ZM42.4115 64.8879L46.2916 56.7106L48.359 57.6916L44.4789 65.8688L42.4115 64.8879ZM40.8061 60.3834L41.7871 58.3159L49.9644 62.1961L48.9834 64.2635L40.8061 60.3834ZM56.7171 71.6759L60.5972 63.4986L62.6646 64.4796L58.7845 72.6569L56.7171 71.6759ZM55.1117 67.1714L56.0927 65.104L64.27 68.9841L63.289 71.0515L55.1117 67.1714ZM71.0227 78.4639L74.9028 70.2867L76.9702 71.2677L73.0901 79.4449L71.0227 78.4639ZM69.4173 73.9594L70.3983 71.892L78.5756 75.7722L77.5946 77.8396L69.4173 73.9594ZM85.3283 85.252L89.2084 77.0747L91.2758 78.0557L87.3957 86.233L85.3283 85.252ZM83.7229 80.7475L84.7039 78.6801L92.8812 82.5602L91.9002 84.6276L83.7229 80.7475ZM99.6338 92.04L103.514 83.8628L105.581 84.8438L101.701 93.021L99.6338 92.04ZM98.0285 87.5355L99.0095 85.4681L107.187 89.3482L106.206 91.4157L98.0285 87.5355ZM3.94043 72.0911L7.82057 63.9139L9.88798 64.8949L6.00785 73.0721L3.94043 72.0911ZM2.33508 67.5867L3.31607 65.5192L11.4933 69.3994L10.5123 71.4668L2.33508 67.5867ZM18.246 78.8792L22.1262 70.7019L24.1936 71.6829L20.3134 79.8602L18.246 78.8792ZM16.6407 74.3747L17.6217 72.3073L25.7989 76.1874L24.8179 78.2548L16.6407 74.3747ZM32.5516 85.6672L36.4317 77.49L38.4992 78.471L34.619 86.6482L32.5516 85.6672ZM30.9463 81.1627L31.9273 79.0953L40.1045 82.9755L39.1235 85.0429L30.9463 81.1627ZM46.8572 92.4553L50.7373 84.278L52.8048 85.259L48.9246 93.4363L46.8572 92.4553ZM45.2518 87.9508L46.2328 85.8834L54.4101 89.7635L53.4291 91.8309L45.2518 87.9508ZM61.1628 99.2433L65.0429 91.0661L67.1103 92.0471L63.2302 100.224L61.1628 99.2433ZM59.5574 94.7388L60.5384 92.6714L68.7157 96.5515L67.7347 98.619L59.5574 94.7388ZM75.4684 106.031L79.3485 97.8541L81.4159 98.8351L77.5358 107.012L75.4684 106.031ZM73.863 101.527L74.844 99.4595L83.0213 103.34L82.0403 105.407L73.863 101.527ZM89.774 112.819L93.6541 104.642L95.7215 105.623L91.8414 113.8L89.774 112.819ZM88.1686 108.315L89.1496 106.247L97.3269 110.128L96.3459 112.195L88.1686 108.315Z" fill="#2589DB"/>
<path d="M33.5201 9.75299L37.4002 1.57573L39.4676 2.55673L35.5875 10.734L33.5201 9.75299ZM31.9147 5.2485L32.8957 3.18109L41.073 7.06122L40.092 9.12864L31.9147 5.2485ZM47.8257 16.541L51.7058 8.36377L53.7732 9.34477L49.8931 17.522L47.8257 16.541ZM46.2203 12.0365L47.2013 9.96913L55.3786 13.8493L54.3976 15.9167L46.2203 12.0365ZM62.1312 23.3291L66.0114 15.1518L68.0788 16.1328L64.1987 24.3101L62.1312 23.3291ZM60.5259 18.8246L61.5069 16.7572L69.6841 20.6373L68.7032 22.7047L60.5259 18.8246ZM76.4368 30.1171L80.317 21.9399L82.3844 22.9209L78.5042 31.0981L76.4368 30.1171ZM74.8315 25.6126L75.8125 23.5452L83.9897 27.4253L83.0087 29.4928L74.8315 25.6126ZM90.7424 36.9052L94.6226 28.7279L96.69 29.7089L92.8098 37.8862L90.7424 36.9052ZM89.1371 32.4007L90.1181 30.3333L98.2953 34.2134L97.3143 36.2808L89.1371 32.4007ZM105.048 43.6932L108.928 35.5159L110.996 36.4969L107.115 44.6742L105.048 43.6932ZM103.443 39.1887L104.424 37.1213L112.601 41.0014L111.62 43.0689L103.443 39.1887ZM119.354 50.4813L123.234 42.304L125.301 43.285L121.421 51.4622L119.354 50.4813ZM117.748 45.9768L118.729 43.9093L126.907 47.7895L125.926 49.8569L117.748 45.9768ZM23.6602 30.5324L27.5403 22.3551L29.6077 23.3361L25.7276 31.5134L23.6602 30.5324ZM22.0548 26.0279L23.0358 23.9605L31.2131 27.8406L30.2321 29.908L22.0548 26.0279ZM37.9658 37.3204L41.8459 29.1432L43.9133 30.1242L40.0332 38.3014L37.9658 37.3204ZM36.3604 32.8159L37.3414 30.7485L45.5187 34.6286L44.5377 36.6961L36.3604 32.8159ZM52.2714 44.1085L56.1515 35.9312L58.2189 36.9122L54.3388 45.0895L52.2714 44.1085ZM50.666 39.604L51.647 37.5366L59.8243 41.4167L58.8433 43.4841L50.666 39.604ZM66.577 50.8965L70.4571 42.7192L72.5245 43.7002L68.6444 51.8775L66.577 50.8965ZM64.9716 46.392L65.9526 44.3246L74.1299 48.2047L73.1489 50.2721L64.9716 46.392ZM80.8825 57.6846L84.7627 49.5073L86.8301 50.4883L82.95 58.6655L80.8825 57.6846ZM79.2772 53.1801L80.2582 51.1126L88.4355 54.9928L87.4545 57.0602L79.2772 53.1801ZM95.1881 64.4726L99.0683 56.2953L101.136 57.2763L97.2556 65.4536L95.1881 64.4726ZM93.5828 59.9681L94.5638 57.9007L102.741 61.7808L101.76 63.8482L93.5828 59.9681ZM109.494 71.2606L113.374 63.0834L115.441 64.0644L111.561 72.2416L109.494 71.2606ZM107.888 66.7561L108.869 64.6887L117.047 68.5689L116.066 70.6363L107.888 66.7561ZM13.8003 51.3118L17.6804 43.1345L19.7479 44.1155L15.8677 52.2928L13.8003 51.3118ZM12.195 46.8073L13.176 44.7399L21.3532 48.62L20.3722 50.6874L12.195 46.8073ZM28.1059 58.0998L31.986 49.9225L34.0535 50.9035L30.1733 59.0808L28.1059 58.0998ZM26.5005 53.5953L27.4815 51.5279L35.6588 55.408L34.6778 57.4754L26.5005 53.5953ZM42.4115 64.8879L46.2916 56.7106L48.359 57.6916L44.4789 65.8688L42.4115 64.8879ZM40.8061 60.3834L41.7871 58.3159L49.9644 62.1961L48.9834 64.2635L40.8061 60.3834ZM56.7171 71.6759L60.5972 63.4986L62.6646 64.4796L58.7845 72.6569L56.7171 71.6759ZM55.1117 67.1714L56.0927 65.104L64.27 68.9841L63.289 71.0515L55.1117 67.1714ZM71.0227 78.4639L74.9028 70.2867L76.9702 71.2677L73.0901 79.4449L71.0227 78.4639ZM69.4173 73.9594L70.3983 71.892L78.5756 75.7722L77.5946 77.8396L69.4173 73.9594ZM85.3283 85.252L89.2084 77.0747L91.2758 78.0557L87.3957 86.233L85.3283 85.252ZM83.7229 80.7475L84.7039 78.6801L92.8812 82.5602L91.9002 84.6276L83.7229 80.7475ZM99.6338 92.04L103.514 83.8628L105.581 84.8438L101.701 93.021L99.6338 92.04ZM98.0285 87.5355L99.0095 85.4681L107.187 89.3482L106.206 91.4157L98.0285 87.5355ZM3.94043 72.0911L7.82057 63.9139L9.88798 64.8949L6.00785 73.0721L3.94043 72.0911ZM2.33508 67.5867L3.31607 65.5192L11.4933 69.3994L10.5123 71.4668L2.33508 67.5867ZM18.246 78.8792L22.1262 70.7019L24.1936 71.6829L20.3134 79.8602L18.246 78.8792ZM16.6407 74.3747L17.6217 72.3073L25.7989 76.1874L24.8179 78.2548L16.6407 74.3747ZM32.5516 85.6672L36.4317 77.49L38.4992 78.471L34.619 86.6482L32.5516 85.6672ZM30.9463 81.1627L31.9273 79.0953L40.1045 82.9755L39.1235 85.0429L30.9463 81.1627ZM46.8572 92.4553L50.7373 84.278L52.8048 85.259L48.9246 93.4363L46.8572 92.4553ZM45.2518 87.9508L46.2328 85.8834L54.4101 89.7635L53.4291 91.8309L45.2518 87.9508ZM61.1628 99.2433L65.0429 91.0661L67.1103 92.0471L63.2302 100.224L61.1628 99.2433ZM59.5574 94.7388L60.5384 92.6714L68.7157 96.5515L67.7347 98.619L59.5574 94.7388ZM75.4684 106.031L79.3485 97.8541L81.4159 98.8351L77.5358 107.012L75.4684 106.031ZM73.863 101.527L74.844 99.4595L83.0213 103.34L82.0403 105.407L73.863 101.527ZM89.774 112.819L93.6541 104.642L95.7215 105.623L91.8414 113.8L89.774 112.819ZM88.1686 108.315L89.1496 106.247L97.3269 110.128L96.3459 112.195L88.1686 108.315Z" fill="#2589DB"/>
<path d="M33.5201 9.75299L37.4002 1.57573L39.4676 2.55673L35.5875 10.734L33.5201 9.75299ZM31.9147 5.2485L32.8957 3.18109L41.073 7.06122L40.092 9.12864L31.9147 5.2485ZM47.8257 16.541L51.7058 8.36377L53.7732 9.34477L49.8931 17.522L47.8257 16.541ZM46.2203 12.0365L47.2013 9.96913L55.3786 13.8493L54.3976 15.9167L46.2203 12.0365ZM62.1312 23.3291L66.0114 15.1518L68.0788 16.1328L64.1987 24.3101L62.1312 23.3291ZM60.5259 18.8246L61.5069 16.7572L69.6841 20.6373L68.7032 22.7047L60.5259 18.8246ZM76.4368 30.1171L80.317 21.9399L82.3844 22.9209L78.5042 31.0981L76.4368 30.1171ZM74.8315 25.6126L75.8125 23.5452L83.9897 27.4253L83.0087 29.4928L74.8315 25.6126ZM90.7424 36.9052L94.6226 28.7279L96.69 29.7089L92.8098 37.8862L90.7424 36.9052ZM89.1371 32.4007L90.1181 30.3333L98.2953 34.2134L97.3143 36.2808L89.1371 32.4007ZM105.048 43.6932L108.928 35.5159L110.996 36.4969L107.115 44.6742L105.048 43.6932ZM103.443 39.1887L104.424 37.1213L112.601 41.0014L111.62 43.0689L103.443 39.1887ZM119.354 50.4813L123.234 42.304L125.301 43.285L121.421 51.4622L119.354 50.4813ZM117.748 45.9768L118.729 43.9093L126.907 47.7895L125.926 49.8569L117.748 45.9768ZM23.6602 30.5324L27.5403 22.3551L29.6077 23.3361L25.7276 31.5134L23.6602 30.5324ZM22.0548 26.0279L23.0358 23.9605L31.2131 27.8406L30.2321 29.908L22.0548 26.0279ZM37.9658 37.3204L41.8459 29.1432L43.9133 30.1242L40.0332 38.3014L37.9658 37.3204ZM36.3604 32.8159L37.3414 30.7485L45.5187 34.6286L44.5377 36.6961L36.3604 32.8159ZM52.2714 44.1085L56.1515 35.9312L58.2189 36.9122L54.3388 45.0895L52.2714 44.1085ZM50.666 39.604L51.647 37.5366L59.8243 41.4167L58.8433 43.4841L50.666 39.604ZM66.577 50.8965L70.4571 42.7192L72.5245 43.7002L68.6444 51.8775L66.577 50.8965ZM64.9716 46.392L65.9526 44.3246L74.1299 48.2047L73.1489 50.2721L64.9716 46.392ZM80.8825 57.6846L84.7627 49.5073L86.8301 50.4883L82.95 58.6655L80.8825 57.6846ZM79.2772 53.1801L80.2582 51.1126L88.4355 54.9928L87.4545 57.0602L79.2772 53.1801ZM95.1881 64.4726L99.0683 56.2953L101.136 57.2763L97.2556 65.4536L95.1881 64.4726ZM93.5828 59.9681L94.5638 57.9007L102.741 61.7808L101.76 63.8482L93.5828 59.9681ZM109.494 71.2606L113.374 63.0834L115.441 64.0644L111.561 72.2416L109.494 71.2606ZM107.888 66.7561L108.869 64.6887L117.047 68.5689L116.066 70.6363L107.888 66.7561ZM13.8003 51.3118L17.6804 43.1345L19.7479 44.1155L15.8677 52.2928L13.8003 51.3118ZM12.195 46.8073L13.176 44.7399L21.3532 48.62L20.3722 50.6874L12.195 46.8073ZM28.1059 58.0998L31.986 49.9225L34.0535 50.9035L30.1733 59.0808L28.1059 58.0998ZM26.5005 53.5953L27.4815 51.5279L35.6588 55.408L34.6778 57.4754L26.5005 53.5953ZM42.4115 64.8879L46.2916 56.7106L48.359 57.6916L44.4789 65.8688L42.4115 64.8879ZM40.8061 60.3834L41.7871 58.3159L49.9644 62.1961L48.9834 64.2635L40.8061 60.3834ZM56.7171 71.6759L60.5972 63.4986L62.6646 64.4796L58.7845 72.6569L56.7171 71.6759ZM55.1117 67.1714L56.0927 65.104L64.27 68.9841L63.289 71.0515L55.1117 67.1714ZM71.0227 78.4639L74.9028 70.2867L76.9702 71.2677L73.0901 79.4449L71.0227 78.4639ZM69.4173 73.9594L70.3983 71.892L78.5756 75.7722L77.5946 77.8396L69.4173 73.9594ZM85.3283 85.252L89.2084 77.0747L91.2758 78.0557L87.3957 86.233L85.3283 85.252ZM83.7229 80.7475L84.7039 78.6801L92.8812 82.5602L91.9002 84.6276L83.7229 80.7475ZM99.6338 92.04L103.514 83.8628L105.581 84.8438L101.701 93.021L99.6338 92.04ZM98.0285 87.5355L99.0095 85.4681L107.187 89.3482L106.206 91.4157L98.0285 87.5355ZM3.94043 72.0911L7.82057 63.9139L9.88798 64.8949L6.00785 73.0721L3.94043 72.0911ZM2.33508 67.5867L3.31607 65.5192L11.4933 69.3994L10.5123 71.4668L2.33508 67.5867ZM18.246 78.8792L22.1262 70.7019L24.1936 71.6829L20.3134 79.8602L18.246 78.8792ZM16.6407 74.3747L17.6217 72.3073L25.7989 76.1874L24.8179 78.2548L16.6407 74.3747ZM32.5516 85.6672L36.4317 77.49L38.4992 78.471L34.619 86.6482L32.5516 85.6672ZM30.9463 81.1627L31.9273 79.0953L40.1045 82.9755L39.1235 85.0429L30.9463 81.1627ZM46.8572 92.4553L50.7373 84.278L52.8048 85.259L48.9246 93.4363L46.8572 92.4553ZM45.2518 87.9508L46.2328 85.8834L54.4101 89.7635L53.4291 91.8309L45.2518 87.9508ZM61.1628 99.2433L65.0429 91.0661L67.1103 92.0471L63.2302 100.224L61.1628 99.2433ZM59.5574 94.7388L60.5384 92.6714L68.7157 96.5515L67.7347 98.619L59.5574 94.7388ZM75.4684 106.031L79.3485 97.8541L81.4159 98.8351L77.5358 107.012L75.4684 106.031ZM73.863 101.527L74.844 99.4595L83.0213 103.34L82.0403 105.407L73.863 101.527ZM89.774 112.819L93.6541 104.642L95.7215 105.623L91.8414 113.8L89.774 112.819ZM88.1686 108.315L89.1496 106.247L97.3269 110.128L96.3459 112.195L88.1686 108.315Z" fill="#2589DB"/>
<path d="M33.5201 9.75299L37.4002 1.57573L39.4676 2.55673L35.5875 10.734L33.5201 9.75299ZM31.9147 5.2485L32.8957 3.18109L41.073 7.06122L40.092 9.12864L31.9147 5.2485ZM47.8257 16.541L51.7058 8.36377L53.7732 9.34477L49.8931 17.522L47.8257 16.541ZM46.2203 12.0365L47.2013 9.96913L55.3786 13.8493L54.3976 15.9167L46.2203 12.0365ZM62.1312 23.3291L66.0114 15.1518L68.0788 16.1328L64.1987 24.3101L62.1312 23.3291ZM60.5259 18.8246L61.5069 16.7572L69.6841 20.6373L68.7032 22.7047L60.5259 18.8246ZM76.4368 30.1171L80.317 21.9399L82.3844 22.9209L78.5042 31.0981L76.4368 30.1171ZM74.8315 25.6126L75.8125 23.5452L83.9897 27.4253L83.0087 29.4928L74.8315 25.6126ZM90.7424 36.9052L94.6226 28.7279L96.69 29.7089L92.8098 37.8862L90.7424 36.9052ZM89.1371 32.4007L90.1181 30.3333L98.2953 34.2134L97.3143 36.2808L89.1371 32.4007ZM105.048 43.6932L108.928 35.5159L110.996 36.4969L107.115 44.6742L105.048 43.6932ZM103.443 39.1887L104.424 37.1213L112.601 41.0014L111.62 43.0689L103.443 39.1887ZM119.354 50.4813L123.234 42.304L125.301 43.285L121.421 51.4622L119.354 50.4813ZM117.748 45.9768L118.729 43.9093L126.907 47.7895L125.926 49.8569L117.748 45.9768ZM23.6602 30.5324L27.5403 22.3551L29.6077 23.3361L25.7276 31.5134L23.6602 30.5324ZM22.0548 26.0279L23.0358 23.9605L31.2131 27.8406L30.2321 29.908L22.0548 26.0279ZM37.9658 37.3204L41.8459 29.1432L43.9133 30.1242L40.0332 38.3014L37.9658 37.3204ZM36.3604 32.8159L37.3414 30.7485L45.5187 34.6286L44.5377 36.6961L36.3604 32.8159ZM52.2714 44.1085L56.1515 35.9312L58.2189 36.9122L54.3388 45.0895L52.2714 44.1085ZM50.666 39.604L51.647 37.5366L59.8243 41.4167L58.8433 43.4841L50.666 39.604ZM66.577 50.8965L70.4571 42.7192L72.5245 43.7002L68.6444 51.8775L66.577 50.8965ZM64.9716 46.392L65.9526 44.3246L74.1299 48.2047L73.1489 50.2721L64.9716 46.392ZM80.8825 57.6846L84.7627 49.5073L86.8301 50.4883L82.95 58.6655L80.8825 57.6846ZM79.2772 53.1801L80.2582 51.1126L88.4355 54.9928L87.4545 57.0602L79.2772 53.1801ZM95.1881 64.4726L99.0683 56.2953L101.136 57.2763L97.2556 65.4536L95.1881 64.4726ZM93.5828 59.9681L94.5638 57.9007L102.741 61.7808L101.76 63.8482L93.5828 59.9681ZM109.494 71.2606L113.374 63.0834L115.441 64.0644L111.561 72.2416L109.494 71.2606ZM107.888 66.7561L108.869 64.6887L117.047 68.5689L116.066 70.6363L107.888 66.7561ZM13.8003 51.3118L17.6804 43.1345L19.7479 44.1155L15.8677 52.2928L13.8003 51.3118ZM12.195 46.8073L13.176 44.7399L21.3532 48.62L20.3722 50.6874L12.195 46.8073ZM28.1059 58.0998L31.986 49.9225L34.0535 50.9035L30.1733 59.0808L28.1059 58.0998ZM26.5005 53.5953L27.4815 51.5279L35.6588 55.408L34.6778 57.4754L26.5005 53.5953ZM42.4115 64.8879L46.2916 56.7106L48.359 57.6916L44.4789 65.8688L42.4115 64.8879ZM40.8061 60.3834L41.7871 58.3159L49.9644 62.1961L48.9834 64.2635L40.8061 60.3834ZM56.7171 71.6759L60.5972 63.4986L62.6646 64.4796L58.7845 72.6569L56.7171 71.6759ZM55.1117 67.1714L56.0927 65.104L64.27 68.9841L63.289 71.0515L55.1117 67.1714ZM71.0227 78.4639L74.9028 70.2867L76.9702 71.2677L73.0901 79.4449L71.0227 78.4639ZM69.4173 73.9594L70.3983 71.892L78.5756 75.7722L77.5946 77.8396L69.4173 73.9594ZM85.3283 85.252L89.2084 77.0747L91.2758 78.0557L87.3957 86.233L85.3283 85.252ZM83.7229 80.7475L84.7039 78.6801L92.8812 82.5602L91.9002 84.6276L83.7229 80.7475ZM99.6338 92.04L103.514 83.8628L105.581 84.8438L101.701 93.021L99.6338 92.04ZM98.0285 87.5355L99.0095 85.4681L107.187 89.3482L106.206 91.4157L98.0285 87.5355ZM3.94043 72.0911L7.82057 63.9139L9.88798 64.8949L6.00785 73.0721L3.94043 72.0911ZM2.33508 67.5867L3.31607 65.5192L11.4933 69.3994L10.5123 71.4668L2.33508 67.5867ZM18.246 78.8792L22.1262 70.7019L24.1936 71.6829L20.3134 79.8602L18.246 78.8792ZM16.6407 74.3747L17.6217 72.3073L25.7989 76.1874L24.8179 78.2548L16.6407 74.3747ZM32.5516 85.6672L36.4317 77.49L38.4992 78.471L34.619 86.6482L32.5516 85.6672ZM30.9463 81.1627L31.9273 79.0953L40.1045 82.9755L39.1235 85.0429L30.9463 81.1627ZM46.8572 92.4553L50.7373 84.278L52.8048 85.259L48.9246 93.4363L46.8572 92.4553ZM45.2518 87.9508L46.2328 85.8834L54.4101 89.7635L53.4291 91.8309L45.2518 87.9508ZM61.1628 99.2433L65.0429 91.0661L67.1103 92.0471L63.2302 100.224L61.1628 99.2433ZM59.5574 94.7388L60.5384 92.6714L68.7157 96.5515L67.7347 98.619L59.5574 94.7388ZM75.4684 106.031L79.3485 97.8541L81.4159 98.8351L77.5358 107.012L75.4684 106.031ZM73.863 101.527L74.844 99.4595L83.0213 103.34L82.0403 105.407L73.863 101.527ZM89.774 112.819L93.6541 104.642L95.7215 105.623L91.8414 113.8L89.774 112.819ZM88.1686 108.315L89.1496 106.247L97.3269 110.128L96.3459 112.195L88.1686 108.315Z" fill="#2589DB"/>
<path d="M33.5201 9.75299L37.4002 1.57573L39.4676 2.55673L35.5875 10.734L33.5201 9.75299ZM31.9147 5.2485L32.8957 3.18109L41.073 7.06122L40.092 9.12864L31.9147 5.2485ZM47.8257 16.541L51.7058 8.36377L53.7732 9.34477L49.8931 17.522L47.8257 16.541ZM46.2203 12.0365L47.2013 9.96913L55.3786 13.8493L54.3976 15.9167L46.2203 12.0365ZM62.1312 23.3291L66.0114 15.1518L68.0788 16.1328L64.1987 24.3101L62.1312 23.3291ZM60.5259 18.8246L61.5069 16.7572L69.6841 20.6373L68.7032 22.7047L60.5259 18.8246ZM76.4368 30.1171L80.317 21.9399L82.3844 22.9209L78.5042 31.0981L76.4368 30.1171ZM74.8315 25.6126L75.8125 23.5452L83.9897 27.4253L83.0087 29.4928L74.8315 25.6126ZM90.7424 36.9052L94.6226 28.7279L96.69 29.7089L92.8098 37.8862L90.7424 36.9052ZM89.1371 32.4007L90.1181 30.3333L98.2953 34.2134L97.3143 36.2808L89.1371 32.4007ZM105.048 43.6932L108.928 35.5159L110.996 36.4969L107.115 44.6742L105.048 43.6932ZM103.443 39.1887L104.424 37.1213L112.601 41.0014L111.62 43.0689L103.443 39.1887ZM119.354 50.4813L123.234 42.304L125.301 43.285L121.421 51.4622L119.354 50.4813ZM117.748 45.9768L118.729 43.9093L126.907 47.7895L125.926 49.8569L117.748 45.9768ZM23.6602 30.5324L27.5403 22.3551L29.6077 23.3361L25.7276 31.5134L23.6602 30.5324ZM22.0548 26.0279L23.0358 23.9605L31.2131 27.8406L30.2321 29.908L22.0548 26.0279ZM37.9658 37.3204L41.8459 29.1432L43.9133 30.1242L40.0332 38.3014L37.9658 37.3204ZM36.3604 32.8159L37.3414 30.7485L45.5187 34.6286L44.5377 36.6961L36.3604 32.8159ZM52.2714 44.1085L56.1515 35.9312L58.2189 36.9122L54.3388 45.0895L52.2714 44.1085ZM50.666 39.604L51.647 37.5366L59.8243 41.4167L58.8433 43.4841L50.666 39.604ZM66.577 50.8965L70.4571 42.7192L72.5245 43.7002L68.6444 51.8775L66.577 50.8965ZM64.9716 46.392L65.9526 44.3246L74.1299 48.2047L73.1489 50.2721L64.9716 46.392ZM80.8825 57.6846L84.7627 49.5073L86.8301 50.4883L82.95 58.6655L80.8825 57.6846ZM79.2772 53.1801L80.2582 51.1126L88.4355 54.9928L87.4545 57.0602L79.2772 53.1801ZM95.1881 64.4726L99.0683 56.2953L101.136 57.2763L97.2556 65.4536L95.1881 64.4726ZM93.5828 59.9681L94.5638 57.9007L102.741 61.7808L101.76 63.8482L93.5828 59.9681ZM109.494 71.2606L113.374 63.0834L115.441 64.0644L111.561 72.2416L109.494 71.2606ZM107.888 66.7561L108.869 64.6887L117.047 68.5689L116.066 70.6363L107.888 66.7561ZM13.8003 51.3118L17.6804 43.1345L19.7479 44.1155L15.8677 52.2928L13.8003 51.3118ZM12.195 46.8073L13.176 44.7399L21.3532 48.62L20.3722 50.6874L12.195 46.8073ZM28.1059 58.0998L31.986 49.9225L34.0535 50.9035L30.1733 59.0808L28.1059 58.0998ZM26.5005 53.5953L27.4815 51.5279L35.6588 55.408L34.6778 57.4754L26.5005 53.5953ZM42.4115 64.8879L46.2916 56.7106L48.359 57.6916L44.4789 65.8688L42.4115 64.8879ZM40.8061 60.3834L41.7871 58.3159L49.9644 62.1961L48.9834 64.2635L40.8061 60.3834ZM56.7171 71.6759L60.5972 63.4986L62.6646 64.4796L58.7845 72.6569L56.7171 71.6759ZM55.1117 67.1714L56.0927 65.104L64.27 68.9841L63.289 71.0515L55.1117 67.1714ZM71.0227 78.4639L74.9028 70.2867L76.9702 71.2677L73.0901 79.4449L71.0227 78.4639ZM69.4173 73.9594L70.3983 71.892L78.5756 75.7722L77.5946 77.8396L69.4173 73.9594ZM85.3283 85.252L89.2084 77.0747L91.2758 78.0557L87.3957 86.233L85.3283 85.252ZM83.7229 80.7475L84.7039 78.6801L92.8812 82.5602L91.9002 84.6276L83.7229 80.7475ZM99.6338 92.04L103.514 83.8628L105.581 84.8438L101.701 93.021L99.6338 92.04ZM98.0285 87.5355L99.0095 85.4681L107.187 89.3482L106.206 91.4157L98.0285 87.5355ZM3.94043 72.0911L7.82057 63.9139L9.88798 64.8949L6.00785 73.0721L3.94043 72.0911ZM2.33508 67.5867L3.31607 65.5192L11.4933 69.3994L10.5123 71.4668L2.33508 67.5867ZM18.246 78.8792L22.1262 70.7019L24.1936 71.6829L20.3134 79.8602L18.246 78.8792ZM16.6407 74.3747L17.6217 72.3073L25.7989 76.1874L24.8179 78.2548L16.6407 74.3747ZM32.5516 85.6672L36.4317 77.49L38.4992 78.471L34.619 86.6482L32.5516 85.6672ZM30.9463 81.1627L31.9273 79.0953L40.1045 82.9755L39.1235 85.0429L30.9463 81.1627ZM46.8572 92.4553L50.7373 84.278L52.8048 85.259L48.9246 93.4363L46.8572 92.4553ZM45.2518 87.9508L46.2328 85.8834L54.4101 89.7635L53.4291 91.8309L45.2518 87.9508ZM61.1628 99.2433L65.0429 91.0661L67.1103 92.0471L63.2302 100.224L61.1628 99.2433ZM59.5574 94.7388L60.5384 92.6714L68.7157 96.5515L67.7347 98.619L59.5574 94.7388ZM75.4684 106.031L79.3485 97.8541L81.4159 98.8351L77.5358 107.012L75.4684 106.031ZM73.863 101.527L74.844 99.4595L83.0213 103.34L82.0403 105.407L73.863 101.527ZM89.774 112.819L93.6541 104.642L95.7215 105.623L91.8414 113.8L89.774 112.819ZM88.1686 108.315L89.1496 106.247L97.3269 110.128L96.3459 112.195L88.1686 108.315Z" fill="#2589DB"/>
</svg>
