<svg width="131" height="127" viewBox="0 0 131 127" fill="none" xmlns="http://www.w3.org/2000/svg">
<path d="M122.123 56.1625L127.856 63.1666L126.085 64.616L120.352 57.612L122.123 56.1625ZM126.881 56.6374L128.331 58.4082L121.327 64.1411L119.877 62.3703L126.881 56.6374ZM109.87 66.1919L115.603 73.196L113.832 74.6454L108.099 67.6414L109.87 66.1919ZM114.628 66.6668L116.078 68.4376L109.074 74.1705L107.624 72.3997L114.628 66.6668ZM97.6168 76.2213L103.35 83.2254L101.579 84.6748L95.846 77.6707L97.6168 76.2213ZM102.375 76.6962L103.825 78.467L96.8206 84.1999L95.3711 82.4291L102.375 76.6962ZM85.3637 86.2507L91.0966 93.2547L89.3258 94.7042L83.5929 87.7001L85.3637 86.2507ZM90.1221 86.7256L91.5715 88.4964L84.5674 94.2293L83.118 92.4585L90.1221 86.7256ZM73.1106 96.2801L78.8435 103.284L77.0727 104.734L71.3398 97.7295L73.1106 96.2801ZM77.8689 96.755L79.3184 98.5257L72.3143 104.259L70.8649 102.488L77.8689 96.755ZM60.8574 106.309L66.5904 113.314L64.8196 114.763L59.0866 107.759L60.8574 106.309ZM65.6158 106.784L67.0652 108.555L60.0612 114.288L58.6118 112.517L65.6158 106.784ZM48.6043 116.339L54.3372 123.343L52.5664 124.792L46.8335 117.788L48.6043 116.339ZM53.3627 116.814L54.8121 118.585L47.8081 124.317L46.3586 122.547L53.3627 116.814ZM107.555 38.3644L113.288 45.3685L111.517 46.8179L105.784 39.8139L107.555 38.3644ZM112.313 38.8393L113.763 40.6101L106.759 46.343L105.309 44.5723L112.313 38.8393ZM95.3019 48.3938L101.035 55.3979L99.264 56.8473L93.5311 49.8433L95.3019 48.3938ZM100.06 48.8687L101.51 50.6395L94.5056 56.3724L93.0562 54.6016L100.06 48.8687ZM83.0488 58.4232L88.7817 65.4273L87.0109 66.8767L81.278 59.8726L83.0488 58.4232ZM87.8071 58.8981L89.2566 60.6689L82.2525 66.4018L80.8031 64.631L87.8071 58.8981ZM70.7956 68.4526L76.5286 75.4566L74.7578 76.9061L69.0248 69.902L70.7956 68.4526ZM75.554 68.9275L77.0034 70.6983L69.9994 76.4312L68.55 74.6604L75.554 68.9275ZM58.5425 78.482L64.2754 85.486L62.5046 86.9355L56.7717 79.9314L58.5425 78.482ZM63.3009 78.9569L64.7503 80.7276L57.7463 86.4606L56.2968 84.6898L63.3009 78.9569ZM46.2894 88.5114L52.0223 95.5154L50.2515 96.9648L44.5186 89.9608L46.2894 88.5114ZM51.0478 88.9862L52.4972 90.757L45.4932 96.49L44.0437 94.7192L51.0478 88.9862ZM34.0363 98.5407L39.7692 105.545L37.9984 106.994L32.2655 99.9902L34.0363 98.5407ZM38.7947 99.0156L40.2441 100.786L33.24 106.519L31.7906 104.749L38.7947 99.0156ZM92.987 20.5664L98.7199 27.5704L96.9491 29.0198L91.2162 22.0158L92.987 20.5664ZM97.7453 21.0412L99.1948 22.812L92.1907 28.5449L90.7413 26.7742L97.7453 21.0412ZM80.7338 30.5957L86.4668 37.5998L84.696 39.0492L78.963 32.0452L80.7338 30.5957ZM85.4922 31.0706L86.9416 32.8414L79.9376 38.5743L78.4882 36.8035L85.4922 31.0706ZM68.4807 40.6251L74.2136 47.6292L72.4428 49.0786L66.7099 42.0745L68.4807 40.6251ZM73.2391 41.1L74.6885 42.8708L67.6845 48.6037L66.235 46.8329L73.2391 41.1ZM56.2276 50.6545L61.9605 57.6585L60.1897 59.108L54.4568 52.1039L56.2276 50.6545ZM60.986 51.1294L62.4354 52.9002L55.4314 58.6331L53.9819 56.8623L60.986 51.1294ZM43.9745 60.6839L49.7074 67.6879L47.9366 69.1374L42.2037 62.1333L43.9745 60.6839ZM48.7329 61.1588L50.1823 62.9296L43.1782 68.6625L41.7288 66.8917L48.7329 61.1588ZM31.7214 70.7133L37.4543 77.7173L35.6835 79.1667L29.9506 72.1627L31.7214 70.7133ZM36.4797 71.1881L37.9292 72.9589L30.9251 78.6919L29.4757 76.9211L36.4797 71.1881ZM19.4682 80.7426L25.2012 87.7467L23.4304 89.1961L17.6974 82.1921L19.4682 80.7426ZM24.2266 81.2175L25.676 82.9883L18.672 88.7212L17.2226 86.9504L24.2266 81.2175ZM78.4189 2.76825L84.1518 9.7723L82.381 11.2217L76.6481 4.21768L78.4189 2.76825ZM83.1773 3.24313L84.6267 5.01392L77.6227 10.7469L76.1732 8.97605L83.1773 3.24313ZM66.1658 12.7976L71.8987 19.8017L70.1279 21.2511L64.395 14.2471L66.1658 12.7976ZM70.9242 13.2725L72.3736 15.0433L65.3696 20.7762L63.9201 19.0054L70.9242 13.2725ZM53.9127 22.827L59.6456 29.8311L57.8748 31.2805L52.1419 24.2764L53.9127 22.827ZM58.6711 23.3019L60.1205 25.0727L53.1164 30.8056L51.667 29.0348L58.6711 23.3019ZM41.6596 32.8564L47.3925 39.8604L45.6217 41.3099L39.8888 34.3058L41.6596 32.8564ZM46.4179 33.3313L47.8674 35.1021L40.8633 40.835L39.4139 39.0642L46.4179 33.3313ZM29.4064 42.8858L35.1394 49.8898L33.3686 51.3393L27.6356 44.3352L29.4064 42.8858ZM34.1648 43.3607L35.6142 45.1315L28.6102 50.8644L27.1608 49.0936L34.1648 43.3607ZM17.1533 52.9152L22.8862 59.9192L21.1154 61.3686L15.3825 54.3646L17.1533 52.9152ZM21.9117 53.39L23.3611 55.1608L16.3571 60.8938L14.9076 59.123L21.9117 53.39ZM4.9002 62.9445L10.6331 69.9486L8.86233 71.398L3.1294 64.394L4.9002 62.9445ZM9.65857 63.4194L11.108 65.1902L4.10396 70.9231L2.65453 69.1523L9.65857 63.4194Z" fill="#15127A" fill-opacity="0.5"/>
</svg>
