<svg width="122" height="103" viewBox="0 0 122 103" fill="none" xmlns="http://www.w3.org/2000/svg">
<path d="M6.29048 35.4396L3.94117 26.6987L6.15109 26.1047L8.5004 34.8457L6.29048 35.4396ZM2.1473 33.0518L1.55334 30.8419L10.2943 28.4926L10.8882 30.7025L2.1473 33.0518ZM21.5822 31.3297L19.2329 22.5887L21.4428 21.9948L23.7921 30.7357L21.5822 31.3297ZM17.439 28.9418L16.845 26.7319L25.586 24.3826L26.1799 26.5925L17.439 28.9418ZM36.8738 27.2197L34.5245 18.4788L36.7345 17.8848L39.0838 26.6258L36.8738 27.2197ZM32.7307 24.8319L32.1367 22.622L40.8776 20.2727L41.4716 22.4826L32.7307 24.8319ZM52.1655 23.1098L49.8162 14.3688L52.0262 13.7749L54.3755 22.5158L52.1655 23.1098ZM48.0224 20.7219L47.4284 18.512L56.1693 16.1627L56.7633 18.3726L48.0224 20.7219ZM67.4572 18.9998L65.1079 10.2589L67.3178 9.66491L69.6671 18.4058L67.4572 18.9998ZM63.3141 16.612L62.7201 14.402L71.461 12.0527L72.055 14.2627L63.3141 16.612ZM82.7489 14.8898L80.3996 6.14892L82.6095 5.55495L84.9588 14.2959L82.7489 14.8898ZM78.6057 12.502L78.0118 10.2921L86.7527 7.94279L87.3467 10.1527L78.6057 12.502ZM98.0406 10.7799L95.6913 2.03896L97.9012 1.445L100.251 10.1859L98.0406 10.7799ZM93.8974 8.39206L93.3035 6.18213L102.044 3.83283L102.638 6.04275L93.8974 8.39206ZM12.2603 57.6514L9.91103 48.9104L12.121 48.3165L14.4703 57.0574L12.2603 57.6514ZM8.11716 55.2635L7.5232 53.0536L16.2641 50.7043L16.8581 52.9142L8.11716 55.2635ZM27.552 53.5414L25.2027 44.8005L27.4126 44.2065L29.7619 52.9474L27.552 53.5414ZM23.4088 51.1536L22.8149 48.9436L31.5558 46.5943L32.1498 48.8043L23.4088 51.1536ZM42.8437 49.4314L40.4944 40.6905L42.7043 40.0966L45.0536 48.8375L42.8437 49.4314ZM38.7005 47.0436L38.1066 44.8337L46.8475 42.4844L47.4415 44.6943L38.7005 47.0436ZM58.1354 45.3215L55.7861 36.5806L57.996 35.9866L60.3453 44.7275L58.1354 45.3215ZM53.9922 42.9337L53.3983 40.7237L62.1392 38.3744L62.7332 40.5843L53.9922 42.9337ZM73.4271 41.2115L71.0778 32.4706L73.2877 31.8766L75.637 40.6176L73.4271 41.2115ZM69.2839 38.8237L68.6899 36.6138L77.4309 34.2645L78.0248 36.4744L69.2839 38.8237ZM88.7188 37.1016L86.3695 28.3606L88.5794 27.7667L90.9287 36.5076L88.7188 37.1016ZM84.5756 34.7137L83.9816 32.5038L92.7226 30.1545L93.3165 32.3644L84.5756 34.7137ZM104.01 32.9916L101.661 24.2507L103.871 23.6567L106.22 32.3977L104.01 32.9916ZM99.8673 30.6038L99.2733 28.3939L108.014 26.0446L108.608 28.2545L99.8673 30.6038ZM18.2302 79.8631L15.8809 71.1222L18.0908 70.5282L20.4401 79.2691L18.2302 79.8631ZM14.087 77.4753L13.4931 75.2653L22.234 72.916L22.828 75.1259L14.087 77.4753ZM33.5219 75.7531L31.1726 67.0122L33.3825 66.4182L35.7318 75.1592L33.5219 75.7531ZM29.3787 73.3653L28.7847 71.1554L37.5257 68.8061L38.1196 71.016L29.3787 73.3653ZM48.8136 71.6432L46.4643 62.9022L48.6742 62.3083L51.0235 71.0492L48.8136 71.6432ZM44.6704 69.2553L44.0764 67.0454L52.8174 64.6961L53.4113 66.906L44.6704 69.2553ZM64.1053 67.5332L61.756 58.7923L63.9659 58.1983L66.3152 66.9392L64.1053 67.5332ZM59.9621 65.1454L59.3681 62.9355L68.109 60.5862L68.703 62.7961L59.9621 65.1454ZM79.3969 63.4233L77.0476 54.6823L79.2576 54.0884L81.6069 62.8293L79.3969 63.4233ZM75.2538 61.0354L74.6598 58.8255L83.4007 56.4762L83.9947 58.6861L75.2538 61.0354ZM94.6886 59.3133L92.3393 50.5724L94.5492 49.9784L96.8986 58.7193L94.6886 59.3133ZM90.5455 56.9255L89.9515 54.7155L98.6924 52.3662L99.2864 54.5762L90.5455 56.9255ZM109.98 55.2033L107.631 46.4624L109.841 45.8684L112.19 54.6094L109.98 55.2033ZM105.837 52.8155L105.243 50.6056L113.984 48.2563L114.578 50.4662L105.837 52.8155ZM24.2001 102.075L21.8508 93.3339L24.0607 92.7399L26.41 101.481L24.2001 102.075ZM20.0569 99.687L19.4629 97.4771L28.2039 95.1277L28.7978 97.3377L20.0569 99.687ZM39.4917 97.9649L37.1424 89.2239L39.3524 88.63L41.7017 97.3709L39.4917 97.9649ZM35.3486 95.577L34.7546 93.3671L43.4955 91.0178L44.0895 93.2277L35.3486 95.577ZM54.7834 93.8549L52.4341 85.114L54.6441 84.52L56.9934 93.2609L54.7834 93.8549ZM50.6403 91.4671L50.0463 89.2571L58.7872 86.9078L59.3812 89.1178L50.6403 91.4671ZM70.0751 89.7449L67.7258 81.004L69.9357 80.41L72.285 89.151L70.0751 89.7449ZM65.9319 87.3571L65.338 85.1472L74.0789 82.7979L74.6729 85.0078L65.9319 87.3571ZM85.3668 85.635L83.0175 76.8941L85.2274 76.3001L87.5767 85.041L85.3668 85.635ZM81.2236 83.2471L80.6297 81.0372L89.3706 78.6879L89.9646 80.8978L81.2236 83.2471ZM100.658 81.525L98.3092 72.7841L100.519 72.1901L102.868 80.9311L100.658 81.525ZM96.5153 79.1372L95.9214 76.9273L104.662 74.578L105.256 76.7879L96.5153 79.1372ZM115.95 77.4151L113.601 68.6741L115.811 68.0802L118.16 76.8211L115.95 77.4151ZM111.807 75.0272L111.213 72.8173L119.954 70.468L120.548 72.6779L111.807 75.0272Z" fill="#2589DB" fill-opacity="0.5"/>
<path d="M6.29048 35.4396L3.94117 26.6987L6.15109 26.1047L8.5004 34.8457L6.29048 35.4396ZM2.1473 33.0518L1.55334 30.8419L10.2943 28.4926L10.8882 30.7025L2.1473 33.0518ZM21.5822 31.3297L19.2329 22.5887L21.4428 21.9948L23.7921 30.7357L21.5822 31.3297ZM17.439 28.9418L16.845 26.7319L25.586 24.3826L26.1799 26.5925L17.439 28.9418ZM36.8738 27.2197L34.5245 18.4788L36.7345 17.8848L39.0838 26.6258L36.8738 27.2197ZM32.7307 24.8319L32.1367 22.622L40.8776 20.2727L41.4716 22.4826L32.7307 24.8319ZM52.1655 23.1098L49.8162 14.3688L52.0262 13.7749L54.3755 22.5158L52.1655 23.1098ZM48.0224 20.7219L47.4284 18.512L56.1693 16.1627L56.7633 18.3726L48.0224 20.7219ZM67.4572 18.9998L65.1079 10.2589L67.3178 9.66491L69.6671 18.4058L67.4572 18.9998ZM63.3141 16.612L62.7201 14.402L71.461 12.0527L72.055 14.2627L63.3141 16.612ZM82.7489 14.8898L80.3996 6.14892L82.6095 5.55495L84.9588 14.2959L82.7489 14.8898ZM78.6057 12.502L78.0118 10.2921L86.7527 7.94279L87.3467 10.1527L78.6057 12.502ZM98.0406 10.7799L95.6913 2.03896L97.9012 1.445L100.251 10.1859L98.0406 10.7799ZM93.8974 8.39206L93.3035 6.18213L102.044 3.83283L102.638 6.04275L93.8974 8.39206ZM12.2603 57.6514L9.91103 48.9104L12.121 48.3165L14.4703 57.0574L12.2603 57.6514ZM8.11716 55.2635L7.5232 53.0536L16.2641 50.7043L16.8581 52.9142L8.11716 55.2635ZM27.552 53.5414L25.2027 44.8005L27.4126 44.2065L29.7619 52.9474L27.552 53.5414ZM23.4088 51.1536L22.8149 48.9436L31.5558 46.5943L32.1498 48.8043L23.4088 51.1536ZM42.8437 49.4314L40.4944 40.6905L42.7043 40.0966L45.0536 48.8375L42.8437 49.4314ZM38.7005 47.0436L38.1066 44.8337L46.8475 42.4844L47.4415 44.6943L38.7005 47.0436ZM58.1354 45.3215L55.7861 36.5806L57.996 35.9866L60.3453 44.7275L58.1354 45.3215ZM53.9922 42.9337L53.3983 40.7237L62.1392 38.3744L62.7332 40.5843L53.9922 42.9337ZM73.4271 41.2115L71.0778 32.4706L73.2877 31.8766L75.637 40.6176L73.4271 41.2115ZM69.2839 38.8237L68.6899 36.6138L77.4309 34.2645L78.0248 36.4744L69.2839 38.8237ZM88.7188 37.1016L86.3695 28.3606L88.5794 27.7667L90.9287 36.5076L88.7188 37.1016ZM84.5756 34.7137L83.9816 32.5038L92.7226 30.1545L93.3165 32.3644L84.5756 34.7137ZM104.01 32.9916L101.661 24.2507L103.871 23.6567L106.22 32.3977L104.01 32.9916ZM99.8673 30.6038L99.2733 28.3939L108.014 26.0446L108.608 28.2545L99.8673 30.6038ZM18.2302 79.8631L15.8809 71.1222L18.0908 70.5282L20.4401 79.2691L18.2302 79.8631ZM14.087 77.4753L13.4931 75.2653L22.234 72.916L22.828 75.1259L14.087 77.4753ZM33.5219 75.7531L31.1726 67.0122L33.3825 66.4182L35.7318 75.1592L33.5219 75.7531ZM29.3787 73.3653L28.7847 71.1554L37.5257 68.8061L38.1196 71.016L29.3787 73.3653ZM48.8136 71.6432L46.4643 62.9022L48.6742 62.3083L51.0235 71.0492L48.8136 71.6432ZM44.6704 69.2553L44.0764 67.0454L52.8174 64.6961L53.4113 66.906L44.6704 69.2553ZM64.1053 67.5332L61.756 58.7923L63.9659 58.1983L66.3152 66.9392L64.1053 67.5332ZM59.9621 65.1454L59.3681 62.9355L68.109 60.5862L68.703 62.7961L59.9621 65.1454ZM79.3969 63.4233L77.0476 54.6823L79.2576 54.0884L81.6069 62.8293L79.3969 63.4233ZM75.2538 61.0354L74.6598 58.8255L83.4007 56.4762L83.9947 58.6861L75.2538 61.0354ZM94.6886 59.3133L92.3393 50.5724L94.5492 49.9784L96.8986 58.7193L94.6886 59.3133ZM90.5455 56.9255L89.9515 54.7155L98.6924 52.3662L99.2864 54.5762L90.5455 56.9255ZM109.98 55.2033L107.631 46.4624L109.841 45.8684L112.19 54.6094L109.98 55.2033ZM105.837 52.8155L105.243 50.6056L113.984 48.2563L114.578 50.4662L105.837 52.8155ZM24.2001 102.075L21.8508 93.3339L24.0607 92.7399L26.41 101.481L24.2001 102.075ZM20.0569 99.687L19.4629 97.4771L28.2039 95.1277L28.7978 97.3377L20.0569 99.687ZM39.4917 97.9649L37.1424 89.2239L39.3524 88.63L41.7017 97.3709L39.4917 97.9649ZM35.3486 95.577L34.7546 93.3671L43.4955 91.0178L44.0895 93.2277L35.3486 95.577ZM54.7834 93.8549L52.4341 85.114L54.6441 84.52L56.9934 93.2609L54.7834 93.8549ZM50.6403 91.4671L50.0463 89.2571L58.7872 86.9078L59.3812 89.1178L50.6403 91.4671ZM70.0751 89.7449L67.7258 81.004L69.9357 80.41L72.285 89.151L70.0751 89.7449ZM65.9319 87.3571L65.338 85.1472L74.0789 82.7979L74.6729 85.0078L65.9319 87.3571ZM85.3668 85.635L83.0175 76.8941L85.2274 76.3001L87.5767 85.041L85.3668 85.635ZM81.2236 83.2471L80.6297 81.0372L89.3706 78.6879L89.9646 80.8978L81.2236 83.2471ZM100.658 81.525L98.3092 72.7841L100.519 72.1901L102.868 80.9311L100.658 81.525ZM96.5153 79.1372L95.9214 76.9273L104.662 74.578L105.256 76.7879L96.5153 79.1372ZM115.95 77.4151L113.601 68.6741L115.811 68.0802L118.16 76.8211L115.95 77.4151ZM111.807 75.0272L111.213 72.8173L119.954 70.468L120.548 72.6779L111.807 75.0272Z" fill="#2589DB" fill-opacity="0.5"/>
<path d="M6.29048 35.4396L3.94117 26.6987L6.15109 26.1047L8.5004 34.8457L6.29048 35.4396ZM2.1473 33.0518L1.55334 30.8419L10.2943 28.4926L10.8882 30.7025L2.1473 33.0518ZM21.5822 31.3297L19.2329 22.5887L21.4428 21.9948L23.7921 30.7357L21.5822 31.3297ZM17.439 28.9418L16.845 26.7319L25.586 24.3826L26.1799 26.5925L17.439 28.9418ZM36.8738 27.2197L34.5245 18.4788L36.7345 17.8848L39.0838 26.6258L36.8738 27.2197ZM32.7307 24.8319L32.1367 22.622L40.8776 20.2727L41.4716 22.4826L32.7307 24.8319ZM52.1655 23.1098L49.8162 14.3688L52.0262 13.7749L54.3755 22.5158L52.1655 23.1098ZM48.0224 20.7219L47.4284 18.512L56.1693 16.1627L56.7633 18.3726L48.0224 20.7219ZM67.4572 18.9998L65.1079 10.2589L67.3178 9.66491L69.6671 18.4058L67.4572 18.9998ZM63.3141 16.612L62.7201 14.402L71.461 12.0527L72.055 14.2627L63.3141 16.612ZM82.7489 14.8898L80.3996 6.14892L82.6095 5.55495L84.9588 14.2959L82.7489 14.8898ZM78.6057 12.502L78.0118 10.2921L86.7527 7.94279L87.3467 10.1527L78.6057 12.502ZM98.0406 10.7799L95.6913 2.03896L97.9012 1.445L100.251 10.1859L98.0406 10.7799ZM93.8974 8.39206L93.3035 6.18213L102.044 3.83283L102.638 6.04275L93.8974 8.39206ZM12.2603 57.6514L9.91103 48.9104L12.121 48.3165L14.4703 57.0574L12.2603 57.6514ZM8.11716 55.2635L7.5232 53.0536L16.2641 50.7043L16.8581 52.9142L8.11716 55.2635ZM27.552 53.5414L25.2027 44.8005L27.4126 44.2065L29.7619 52.9474L27.552 53.5414ZM23.4088 51.1536L22.8149 48.9436L31.5558 46.5943L32.1498 48.8043L23.4088 51.1536ZM42.8437 49.4314L40.4944 40.6905L42.7043 40.0966L45.0536 48.8375L42.8437 49.4314ZM38.7005 47.0436L38.1066 44.8337L46.8475 42.4844L47.4415 44.6943L38.7005 47.0436ZM58.1354 45.3215L55.7861 36.5806L57.996 35.9866L60.3453 44.7275L58.1354 45.3215ZM53.9922 42.9337L53.3983 40.7237L62.1392 38.3744L62.7332 40.5843L53.9922 42.9337ZM73.4271 41.2115L71.0778 32.4706L73.2877 31.8766L75.637 40.6176L73.4271 41.2115ZM69.2839 38.8237L68.6899 36.6138L77.4309 34.2645L78.0248 36.4744L69.2839 38.8237ZM88.7188 37.1016L86.3695 28.3606L88.5794 27.7667L90.9287 36.5076L88.7188 37.1016ZM84.5756 34.7137L83.9816 32.5038L92.7226 30.1545L93.3165 32.3644L84.5756 34.7137ZM104.01 32.9916L101.661 24.2507L103.871 23.6567L106.22 32.3977L104.01 32.9916ZM99.8673 30.6038L99.2733 28.3939L108.014 26.0446L108.608 28.2545L99.8673 30.6038ZM18.2302 79.8631L15.8809 71.1222L18.0908 70.5282L20.4401 79.2691L18.2302 79.8631ZM14.087 77.4753L13.4931 75.2653L22.234 72.916L22.828 75.1259L14.087 77.4753ZM33.5219 75.7531L31.1726 67.0122L33.3825 66.4182L35.7318 75.1592L33.5219 75.7531ZM29.3787 73.3653L28.7847 71.1554L37.5257 68.8061L38.1196 71.016L29.3787 73.3653ZM48.8136 71.6432L46.4643 62.9022L48.6742 62.3083L51.0235 71.0492L48.8136 71.6432ZM44.6704 69.2553L44.0764 67.0454L52.8174 64.6961L53.4113 66.906L44.6704 69.2553ZM64.1053 67.5332L61.756 58.7923L63.9659 58.1983L66.3152 66.9392L64.1053 67.5332ZM59.9621 65.1454L59.3681 62.9355L68.109 60.5862L68.703 62.7961L59.9621 65.1454ZM79.3969 63.4233L77.0476 54.6823L79.2576 54.0884L81.6069 62.8293L79.3969 63.4233ZM75.2538 61.0354L74.6598 58.8255L83.4007 56.4762L83.9947 58.6861L75.2538 61.0354ZM94.6886 59.3133L92.3393 50.5724L94.5492 49.9784L96.8986 58.7193L94.6886 59.3133ZM90.5455 56.9255L89.9515 54.7155L98.6924 52.3662L99.2864 54.5762L90.5455 56.9255ZM109.98 55.2033L107.631 46.4624L109.841 45.8684L112.19 54.6094L109.98 55.2033ZM105.837 52.8155L105.243 50.6056L113.984 48.2563L114.578 50.4662L105.837 52.8155ZM24.2001 102.075L21.8508 93.3339L24.0607 92.7399L26.41 101.481L24.2001 102.075ZM20.0569 99.687L19.4629 97.4771L28.2039 95.1277L28.7978 97.3377L20.0569 99.687ZM39.4917 97.9649L37.1424 89.2239L39.3524 88.63L41.7017 97.3709L39.4917 97.9649ZM35.3486 95.577L34.7546 93.3671L43.4955 91.0178L44.0895 93.2277L35.3486 95.577ZM54.7834 93.8549L52.4341 85.114L54.6441 84.52L56.9934 93.2609L54.7834 93.8549ZM50.6403 91.4671L50.0463 89.2571L58.7872 86.9078L59.3812 89.1178L50.6403 91.4671ZM70.0751 89.7449L67.7258 81.004L69.9357 80.41L72.285 89.151L70.0751 89.7449ZM65.9319 87.3571L65.338 85.1472L74.0789 82.7979L74.6729 85.0078L65.9319 87.3571ZM85.3668 85.635L83.0175 76.8941L85.2274 76.3001L87.5767 85.041L85.3668 85.635ZM81.2236 83.2471L80.6297 81.0372L89.3706 78.6879L89.9646 80.8978L81.2236 83.2471ZM100.658 81.525L98.3092 72.7841L100.519 72.1901L102.868 80.9311L100.658 81.525ZM96.5153 79.1372L95.9214 76.9273L104.662 74.578L105.256 76.7879L96.5153 79.1372ZM115.95 77.4151L113.601 68.6741L115.811 68.0802L118.16 76.8211L115.95 77.4151ZM111.807 75.0272L111.213 72.8173L119.954 70.468L120.548 72.6779L111.807 75.0272Z" fill="#2589DB" fill-opacity="0.5"/>
<path d="M6.29048 35.4396L3.94117 26.6987L6.15109 26.1047L8.5004 34.8457L6.29048 35.4396ZM2.1473 33.0518L1.55334 30.8419L10.2943 28.4926L10.8882 30.7025L2.1473 33.0518ZM21.5822 31.3297L19.2329 22.5887L21.4428 21.9948L23.7921 30.7357L21.5822 31.3297ZM17.439 28.9418L16.845 26.7319L25.586 24.3826L26.1799 26.5925L17.439 28.9418ZM36.8738 27.2197L34.5245 18.4788L36.7345 17.8848L39.0838 26.6258L36.8738 27.2197ZM32.7307 24.8319L32.1367 22.622L40.8776 20.2727L41.4716 22.4826L32.7307 24.8319ZM52.1655 23.1098L49.8162 14.3688L52.0262 13.7749L54.3755 22.5158L52.1655 23.1098ZM48.0224 20.7219L47.4284 18.512L56.1693 16.1627L56.7633 18.3726L48.0224 20.7219ZM67.4572 18.9998L65.1079 10.2589L67.3178 9.66491L69.6671 18.4058L67.4572 18.9998ZM63.3141 16.612L62.7201 14.402L71.461 12.0527L72.055 14.2627L63.3141 16.612ZM82.7489 14.8898L80.3996 6.14892L82.6095 5.55495L84.9588 14.2959L82.7489 14.8898ZM78.6057 12.502L78.0118 10.2921L86.7527 7.94279L87.3467 10.1527L78.6057 12.502ZM98.0406 10.7799L95.6913 2.03896L97.9012 1.445L100.251 10.1859L98.0406 10.7799ZM93.8974 8.39206L93.3035 6.18213L102.044 3.83283L102.638 6.04275L93.8974 8.39206ZM12.2603 57.6514L9.91103 48.9104L12.121 48.3165L14.4703 57.0574L12.2603 57.6514ZM8.11716 55.2635L7.5232 53.0536L16.2641 50.7043L16.8581 52.9142L8.11716 55.2635ZM27.552 53.5414L25.2027 44.8005L27.4126 44.2065L29.7619 52.9474L27.552 53.5414ZM23.4088 51.1536L22.8149 48.9436L31.5558 46.5943L32.1498 48.8043L23.4088 51.1536ZM42.8437 49.4314L40.4944 40.6905L42.7043 40.0966L45.0536 48.8375L42.8437 49.4314ZM38.7005 47.0436L38.1066 44.8337L46.8475 42.4844L47.4415 44.6943L38.7005 47.0436ZM58.1354 45.3215L55.7861 36.5806L57.996 35.9866L60.3453 44.7275L58.1354 45.3215ZM53.9922 42.9337L53.3983 40.7237L62.1392 38.3744L62.7332 40.5843L53.9922 42.9337ZM73.4271 41.2115L71.0778 32.4706L73.2877 31.8766L75.637 40.6176L73.4271 41.2115ZM69.2839 38.8237L68.6899 36.6138L77.4309 34.2645L78.0248 36.4744L69.2839 38.8237ZM88.7188 37.1016L86.3695 28.3606L88.5794 27.7667L90.9287 36.5076L88.7188 37.1016ZM84.5756 34.7137L83.9816 32.5038L92.7226 30.1545L93.3165 32.3644L84.5756 34.7137ZM104.01 32.9916L101.661 24.2507L103.871 23.6567L106.22 32.3977L104.01 32.9916ZM99.8673 30.6038L99.2733 28.3939L108.014 26.0446L108.608 28.2545L99.8673 30.6038ZM18.2302 79.8631L15.8809 71.1222L18.0908 70.5282L20.4401 79.2691L18.2302 79.8631ZM14.087 77.4753L13.4931 75.2653L22.234 72.916L22.828 75.1259L14.087 77.4753ZM33.5219 75.7531L31.1726 67.0122L33.3825 66.4182L35.7318 75.1592L33.5219 75.7531ZM29.3787 73.3653L28.7847 71.1554L37.5257 68.8061L38.1196 71.016L29.3787 73.3653ZM48.8136 71.6432L46.4643 62.9022L48.6742 62.3083L51.0235 71.0492L48.8136 71.6432ZM44.6704 69.2553L44.0764 67.0454L52.8174 64.6961L53.4113 66.906L44.6704 69.2553ZM64.1053 67.5332L61.756 58.7923L63.9659 58.1983L66.3152 66.9392L64.1053 67.5332ZM59.9621 65.1454L59.3681 62.9355L68.109 60.5862L68.703 62.7961L59.9621 65.1454ZM79.3969 63.4233L77.0476 54.6823L79.2576 54.0884L81.6069 62.8293L79.3969 63.4233ZM75.2538 61.0354L74.6598 58.8255L83.4007 56.4762L83.9947 58.6861L75.2538 61.0354ZM94.6886 59.3133L92.3393 50.5724L94.5492 49.9784L96.8986 58.7193L94.6886 59.3133ZM90.5455 56.9255L89.9515 54.7155L98.6924 52.3662L99.2864 54.5762L90.5455 56.9255ZM109.98 55.2033L107.631 46.4624L109.841 45.8684L112.19 54.6094L109.98 55.2033ZM105.837 52.8155L105.243 50.6056L113.984 48.2563L114.578 50.4662L105.837 52.8155ZM24.2001 102.075L21.8508 93.3339L24.0607 92.7399L26.41 101.481L24.2001 102.075ZM20.0569 99.687L19.4629 97.4771L28.2039 95.1277L28.7978 97.3377L20.0569 99.687ZM39.4917 97.9649L37.1424 89.2239L39.3524 88.63L41.7017 97.3709L39.4917 97.9649ZM35.3486 95.577L34.7546 93.3671L43.4955 91.0178L44.0895 93.2277L35.3486 95.577ZM54.7834 93.8549L52.4341 85.114L54.6441 84.52L56.9934 93.2609L54.7834 93.8549ZM50.6403 91.4671L50.0463 89.2571L58.7872 86.9078L59.3812 89.1178L50.6403 91.4671ZM70.0751 89.7449L67.7258 81.004L69.9357 80.41L72.285 89.151L70.0751 89.7449ZM65.9319 87.3571L65.338 85.1472L74.0789 82.7979L74.6729 85.0078L65.9319 87.3571ZM85.3668 85.635L83.0175 76.8941L85.2274 76.3001L87.5767 85.041L85.3668 85.635ZM81.2236 83.2471L80.6297 81.0372L89.3706 78.6879L89.9646 80.8978L81.2236 83.2471ZM100.658 81.525L98.3092 72.7841L100.519 72.1901L102.868 80.9311L100.658 81.525ZM96.5153 79.1372L95.9214 76.9273L104.662 74.578L105.256 76.7879L96.5153 79.1372ZM115.95 77.4151L113.601 68.6741L115.811 68.0802L118.16 76.8211L115.95 77.4151ZM111.807 75.0272L111.213 72.8173L119.954 70.468L120.548 72.6779L111.807 75.0272Z" fill="#2589DB" fill-opacity="0.5"/>
<path d="M6.29048 35.4396L3.94117 26.6987L6.15109 26.1047L8.5004 34.8457L6.29048 35.4396ZM2.1473 33.0518L1.55334 30.8419L10.2943 28.4926L10.8882 30.7025L2.1473 33.0518ZM21.5822 31.3297L19.2329 22.5887L21.4428 21.9948L23.7921 30.7357L21.5822 31.3297ZM17.439 28.9418L16.845 26.7319L25.586 24.3826L26.1799 26.5925L17.439 28.9418ZM36.8738 27.2197L34.5245 18.4788L36.7345 17.8848L39.0838 26.6258L36.8738 27.2197ZM32.7307 24.8319L32.1367 22.622L40.8776 20.2727L41.4716 22.4826L32.7307 24.8319ZM52.1655 23.1098L49.8162 14.3688L52.0262 13.7749L54.3755 22.5158L52.1655 23.1098ZM48.0224 20.7219L47.4284 18.512L56.1693 16.1627L56.7633 18.3726L48.0224 20.7219ZM67.4572 18.9998L65.1079 10.2589L67.3178 9.66491L69.6671 18.4058L67.4572 18.9998ZM63.3141 16.612L62.7201 14.402L71.461 12.0527L72.055 14.2627L63.3141 16.612ZM82.7489 14.8898L80.3996 6.14892L82.6095 5.55495L84.9588 14.2959L82.7489 14.8898ZM78.6057 12.502L78.0118 10.2921L86.7527 7.94279L87.3467 10.1527L78.6057 12.502ZM98.0406 10.7799L95.6913 2.03896L97.9012 1.445L100.251 10.1859L98.0406 10.7799ZM93.8974 8.39206L93.3035 6.18213L102.044 3.83283L102.638 6.04275L93.8974 8.39206ZM12.2603 57.6514L9.91103 48.9104L12.121 48.3165L14.4703 57.0574L12.2603 57.6514ZM8.11716 55.2635L7.5232 53.0536L16.2641 50.7043L16.8581 52.9142L8.11716 55.2635ZM27.552 53.5414L25.2027 44.8005L27.4126 44.2065L29.7619 52.9474L27.552 53.5414ZM23.4088 51.1536L22.8149 48.9436L31.5558 46.5943L32.1498 48.8043L23.4088 51.1536ZM42.8437 49.4314L40.4944 40.6905L42.7043 40.0966L45.0536 48.8375L42.8437 49.4314ZM38.7005 47.0436L38.1066 44.8337L46.8475 42.4844L47.4415 44.6943L38.7005 47.0436ZM58.1354 45.3215L55.7861 36.5806L57.996 35.9866L60.3453 44.7275L58.1354 45.3215ZM53.9922 42.9337L53.3983 40.7237L62.1392 38.3744L62.7332 40.5843L53.9922 42.9337ZM73.4271 41.2115L71.0778 32.4706L73.2877 31.8766L75.637 40.6176L73.4271 41.2115ZM69.2839 38.8237L68.6899 36.6138L77.4309 34.2645L78.0248 36.4744L69.2839 38.8237ZM88.7188 37.1016L86.3695 28.3606L88.5794 27.7667L90.9287 36.5076L88.7188 37.1016ZM84.5756 34.7137L83.9816 32.5038L92.7226 30.1545L93.3165 32.3644L84.5756 34.7137ZM104.01 32.9916L101.661 24.2507L103.871 23.6567L106.22 32.3977L104.01 32.9916ZM99.8673 30.6038L99.2733 28.3939L108.014 26.0446L108.608 28.2545L99.8673 30.6038ZM18.2302 79.8631L15.8809 71.1222L18.0908 70.5282L20.4401 79.2691L18.2302 79.8631ZM14.087 77.4753L13.4931 75.2653L22.234 72.916L22.828 75.1259L14.087 77.4753ZM33.5219 75.7531L31.1726 67.0122L33.3825 66.4182L35.7318 75.1592L33.5219 75.7531ZM29.3787 73.3653L28.7847 71.1554L37.5257 68.8061L38.1196 71.016L29.3787 73.3653ZM48.8136 71.6432L46.4643 62.9022L48.6742 62.3083L51.0235 71.0492L48.8136 71.6432ZM44.6704 69.2553L44.0764 67.0454L52.8174 64.6961L53.4113 66.906L44.6704 69.2553ZM64.1053 67.5332L61.756 58.7923L63.9659 58.1983L66.3152 66.9392L64.1053 67.5332ZM59.9621 65.1454L59.3681 62.9355L68.109 60.5862L68.703 62.7961L59.9621 65.1454ZM79.3969 63.4233L77.0476 54.6823L79.2576 54.0884L81.6069 62.8293L79.3969 63.4233ZM75.2538 61.0354L74.6598 58.8255L83.4007 56.4762L83.9947 58.6861L75.2538 61.0354ZM94.6886 59.3133L92.3393 50.5724L94.5492 49.9784L96.8986 58.7193L94.6886 59.3133ZM90.5455 56.9255L89.9515 54.7155L98.6924 52.3662L99.2864 54.5762L90.5455 56.9255ZM109.98 55.2033L107.631 46.4624L109.841 45.8684L112.19 54.6094L109.98 55.2033ZM105.837 52.8155L105.243 50.6056L113.984 48.2563L114.578 50.4662L105.837 52.8155ZM24.2001 102.075L21.8508 93.3339L24.0607 92.7399L26.41 101.481L24.2001 102.075ZM20.0569 99.687L19.4629 97.4771L28.2039 95.1277L28.7978 97.3377L20.0569 99.687ZM39.4917 97.9649L37.1424 89.2239L39.3524 88.63L41.7017 97.3709L39.4917 97.9649ZM35.3486 95.577L34.7546 93.3671L43.4955 91.0178L44.0895 93.2277L35.3486 95.577ZM54.7834 93.8549L52.4341 85.114L54.6441 84.52L56.9934 93.2609L54.7834 93.8549ZM50.6403 91.4671L50.0463 89.2571L58.7872 86.9078L59.3812 89.1178L50.6403 91.4671ZM70.0751 89.7449L67.7258 81.004L69.9357 80.41L72.285 89.151L70.0751 89.7449ZM65.9319 87.3571L65.338 85.1472L74.0789 82.7979L74.6729 85.0078L65.9319 87.3571ZM85.3668 85.635L83.0175 76.8941L85.2274 76.3001L87.5767 85.041L85.3668 85.635ZM81.2236 83.2471L80.6297 81.0372L89.3706 78.6879L89.9646 80.8978L81.2236 83.2471ZM100.658 81.525L98.3092 72.7841L100.519 72.1901L102.868 80.9311L100.658 81.525ZM96.5153 79.1372L95.9214 76.9273L104.662 74.578L105.256 76.7879L96.5153 79.1372ZM115.95 77.4151L113.601 68.6741L115.811 68.0802L118.16 76.8211L115.95 77.4151ZM111.807 75.0272L111.213 72.8173L119.954 70.468L120.548 72.6779L111.807 75.0272Z" fill="#2589DB" fill-opacity="0.5"/>
</svg>
